/* XPM */
static char *_8ed05dcd5b44e34c3208e0a3e99a400pzfpX7qAeixGODpJ[] = {
/* columns rows colors chars-per-pixel */
"45 45 145 2 ",
"   c None",
".  c #161616",
"X  c #1D1D1D",
"o  c #271610",
"O  c #2D1912",
"+  c #321C15",
"@  c #34241F",
"#  c #201F20",
"$  c #242424",
"%  c #2C2C2C",
"&  c #352622",
"*  c #392721",
"=  c #3D2B25",
"-  c #332D2D",
";  c #3B2D29",
":  c #302F30",
">  c #343233",
",  c #3F3432",
"<  c #3C3A3B",
"1  c #46281E",
"2  c #4A2F27",
"3  c #422F29",
"4  c #502E23",
"5  c #45312B",
"6  c #4A352E",
"7  c #533025",
"8  c #4B3731",
"9  c #4F3A34",
"0  c #563D36",
"q  c #5D3D33",
"w  c #523E38",
"e  c #5D4037",
"r  c #54403A",
"t  c #6C4527",
"y  c #764D2E",
"u  c #674135",
"i  c #654338",
"p  c #6C463A",
"a  c #6B483D",
"s  c #734B36",
"d  c #754D3E",
"f  c #7B5133",
"g  c #7D543B",
"h  c #403F40",
"j  c #434243",
"k  c #4F4747",
"l  c #484748",
"z  c #4D4C4D",
"x  c #5D4944",
"c  c #504F50",
"v  c #545354",
"b  c #5B5656",
"n  c #5B5759",
"m  c #5C5B5C",
"M  c #6C4E46",
"N  c #764E42",
"B  c #64524F",
"V  c #745045",
"C  c #7C5345",
"Z  c #7D5B42",
"A  c #71534A",
"S  c #7F5649",
"D  c #7C594F",
"F  c #655451",
"G  c #6F5955",
"H  c #755A52",
"J  c #7D5E56",
"K  c #75635F",
"L  c #615F61",
"P  c #646364",
"I  c #6B6767",
"U  c #696769",
"Y  c #6C6B6C",
"T  c #706F70",
"R  c #757475",
"E  c #787778",
"W  c #7A797A",
"Q  c #80563D",
"!  c #855A3A",
"~  c #8A5E3E",
"^  c #815746",
"/  c #845A45",
"(  c #845A4D",
")  c #895E4A",
"_  c #875D50",
"`  c #895E51",
"'  c #9D6F4E",
"]  c #866257",
"[  c #8D6255",
"{  c #866857",
"}  c #85635A",
"|  c #89675D",
" . c #8F6A5F",
".. c #916556",
"X. c #9D6F55",
"o. c #936759",
"O. c #96685A",
"+. c #9D6D5C",
"@. c #806D6A",
"#. c #9C6F61",
"$. c #9C6F61",
"%. c #9D7061",
"&. c #9E7062",
"*. c #9F7568",
"=. c #817876",
"-. c #8D7F7A",
";. c #A17163",
":. c #A27263",
">. c #A37263",
",. c #A37363",
"<. c #A47363",
"1. c #A57364",
"2. c #A67464",
"3. c #A57364",
"4. c #A97565",
"5. c #A97565",
"6. c #9E817A",
"7. c #807F80",
"8. c #818181",
"9. c #828082",
"0. c #848284",
"q. c #848384",
"w. c #858485",
"e. c #868686",
"r. c #858585",
"t. c #898789",
"y. c #888788",
"u. c #888788",
"i. c #898889",
"p. c #8A888A",
"a. c #8B8B8B",
"s. c gray55",
"d. c #8E8C8E",
"f. c #8D8D8D",
"g. c #929192",
"h. c #939293",
"j. c #9E9D9E",
"k. c #A38A84",
"l. c #A29FA2",
"z. c #A2A1A2",
"x. c #A2A2A2",
"c. c #A3A2A3",
"v. c #A5A4A5",
"b. c #A1A0A1",
"n. c #B3B1B3",
/* pixels */
"                                                                                          ",
"                                                                                          ",
"                                                                                          ",
"                                    : P j z P m $                                         ",
"                              j t.v & 5 = = 5 ; > Y j                                     ",
"                          i.t.> - 3 V o.S ` o.S 2 - - 8.z                                 ",
"                        P j ; 6 C ( #.#.( O.:.o.S ..i = - j                               ",
"                      U U @ V o.` ( ) +.( O.1.o.S :.` a 9 b L                             ",
"                      d.< q [ #.` ( Q +.( O.1.o.S 4.[ S ` & < v                           ",
"                    < z , p [ :.` ( Q +.( O.:.o.S :.[ S o.0 Y P                           ",
"                    0.< q C ..4.` _ ..+.( o.%.o.S #.[ S o.i = z n                         ",
"                  P h ; ( S ..4.` ` #.#.( o.#.o.S #.[ S o.S e m z X                       ",
"                > l.U 8 o.S ..2.` ` #.#.( o.( ) S #.[ S C ( a E 0.z                       ",
"                % d.l 3 o.S [ #.` ` #.#.( o.S ! S #.[ S y / a P Y %                       ",
"                $ U z 5 o.S [ #.` ` :.#.( o.S ! S #.[ S y / a n P >                       ",
"                $ 8.z 3 o.S [ #.` ` 4.#.( o.S ! S #.[ S Z { K Y R >                       ",
"                > g.P 6 o.S [ #.` ` 4.#.( o.S ! S #.[ V I I v n m j                       ",
"                > z.P 5 [ N [ #.` ` 4.#.( o.S ! S #.[ M m m z j T h                       ",
"                $ v < 3 ` t [ #.` ` 4.#.( o.S / S #.[ S o.D x z z $                       ",
"                > z.P 5 ` t [ X.` ` :.#.( o.( _ S #.[ S o.( a E i.j                       ",
"                X v < 5 [ s [ ' ` ` #.#.( o.#.o.S #.[ S o.( a v m %                       ",
"                $ R w.w o.S [ ' ` ` #.#.( o.#.o.S #.[ S +.( a t.v.P                       ",
"                $ R v 5 o.S [ +.` ` #.#.( o.#.o.S #.[ S +.( a P Y <                       ",
"                $ T c 5 o.S [ #.` ` #.#.( o.#.o.S #.[ S +.( a j z >                       ",
"                > z.R 8 o.S [ #.` ` #.#.( o.<.o.S #.[ S +.( a T P j                       ",
"                $ P < 3 o.k.@.K F H #.#.( o.4.O.S #.[ S O.( a P c $                       ",
"                  i.m 5 o.S 6.*.} } #.#.( o.4.O.S #.[ S o.( a Y W h                       ",
"                  w.j 5 o.S H  .J ] #.#.( o.4.O.S #.[ S o.( a U U %                       ",
"                  0.n 6 o.S ] | D ` #.#.( o.4.O.S #.[ S o.( a P Y <                       ",
"                  n.R 8 O.S [ #.` ` #.#.( o.4.O.S ` g S o.( a E h.z                       ",
"                  g.z 5 +.S [ $.` ` #.#.( o.4.o.S ` f S o.( a Y R :                       ",
"                  z % 5 +.S [ ( ) ` #.#.( o.%.o.S ` f S o.( a c v %                       ",
"                  Y W w +.S [ S ~ ( [ #.( o.#.o.S ` f S o.( a t.z.L                       ",
"                  7.c 5 +.S [ S ~ ( Q +.( o.#.o.S [ S S o.( A E 8.<                       ",
"                  z % = o.S [ S ~ ( ( #.( o.#.o.S $.[ C -.=.n < < #                       ",
"                  n.i.r o.S [ S ~ ` #.#.( o.#.o.S #.[ M L L v w.w.z                       ",
"                  j.w.w o.S [ S ~ ` #.#.( o.%.o.S #.[ V G B k v U z                       ",
"                  h.m 5 o.S [ S ~ ` #.#.( o.2.o.S #.[ S o.( a n m >                       ",
"                  P < 5 ^ Z [ o.` ` #.#.( o.4.O.S #.[ S o.( a v v %                       ",
"                  j.E 9 d g [ #.` ` #.#.( o.4.O.S #.[ S Q / a E w.z                       ",
"                  j.m 6 [ S [ #.` ` #.#.( o.4.O.S #.[ S s / a E E >                       ",
"                  W h 3 [ S [ #.` ` #.#.( o.:.o.S #.[ S [ ( a U n %                       ",
"                  R l * d C [ #.` ` #.[ C _ #.o.S #.[ S S N q v P >                       ",
"                  d.z & 4 u ( [ S S ( 7 4 7 ( ( N [ ( p 4 7 1 W 8.<                       ",
"                          o o o O + o o o o o O + o O + o o     > .                       "
};
