/* XPM */
static char *e877bb3cfcac435ac8c13bb96bd249a1FCg5XEk546WLieJm[] = {
/* columns rows colors chars-per-pixel */
"45 45 144 2 ",
"   c #5F3F35",
".  c #613F34",
"X  c #613F38",
"o  c #5F4035",
"O  c #5F4038",
"+  c #614034",
"@  c #6D4737",
"#  c #664438",
"$  c #6A463A",
"%  c #6C493C",
"&  c #754E3E",
"*  c #794F3E",
"=  c #75503E",
"-  c #7B513F",
";  c #6E4C41",
":  c #754F41",
">  c #794F42",
",  c #755041",
"<  c #7C5343",
"1  c #7F5946",
"2  c #7F5649",
"3  c #7D5848",
"4  c #845646",
"5  c #845846",
"6  c #895947",
"7  c #835749",
"8  c #845949",
"9  c #8B5D4C",
"0  c #915F4D",
"q  c #8A5F51",
"w  c #915F50",
"e  c #8E614E",
"r  c #92624E",
"t  c #9C664F",
"y  c #8E6152",
"u  c #8C685D",
"i  c #956553",
"p  c #9A6652",
"a  c #966853",
"s  c #9C6954",
"d  c #90675A",
"f  c #9D6C59",
"g  c #9C715E",
"h  c #A16C56",
"j  c #A36E59",
"k  c #A6725C",
"l  c #AC745F",
"z  c #AD755F",
"x  c #AC745E",
"c  c #AC745D",
"v  c #AB745F",
"b  c #9F7D6D",
"n  c #9E7A6C",
"m  c #A76F60",
"M  c #A27665",
"N  c #A67561",
"B  c #AB7361",
"V  c #A87560",
"C  c #A97560",
"Z  c #A97561",
"A  c #AA7460",
"S  c #AB7460",
"D  c #AA7560",
"F  c #AB7560",
"G  c #AA7561",
"H  c #AB7561",
"J  c #AA7660",
"K  c #AA7661",
"L  c #AB7761",
"P  c #AA7562",
"I  c #AC7460",
"U  c #AD7460",
"Y  c #AC7560",
"T  c #AC7561",
"R  c #AE7562",
"E  c #AD7662",
"W  c #AE7763",
"Q  c #AB7561",
"!  c #A17867",
"~  c #A67865",
"^  c #A57966",
"/  c #A67965",
"(  c #AC7863",
")  c #AD7863",
"_  c #AA7865",
"`  c #AE7965",
"'  c #AE7965",
"]  c #A67A68",
"[  c #A77C6A",
"{  c #A27E6C",
"}  c #A57A6A",
"|  c #A87868",
" . c #A87D6C",
".. c #AC7968",
"X. c #B27B65",
"o. c #B17A66",
"O. c #B27B67",
"+. c #B07C67",
"@. c #B07965",
"#. c #B37C68",
"$. c #B77F6E",
"%. c #B57E6B",
"&. c #B97D6E",
"*. c #A07F70",
"=. c #B77F70",
"-. c #B97D70",
";. c #B97E70",
":. c #A7816F",
">. c #B48169",
",. c #B5806B",
"<. c #B5806C",
"1. c #B4816C",
"2. c #B5816C",
"3. c #B6806C",
"4. c #B7806C",
"5. c #B6816C",
"6. c #B5816E",
"7. c #B6806F",
"8. c #B5816C",
"9. c #B8816D",
"0. c #A68273",
"q. c #A48275",
"w. c #A98172",
"e. c #AE8171",
"r. c #AA8374",
"t. c #AA8376",
"y. c #AE8374",
"u. c #AC8577",
"i. c #AB8475",
"p. c #A98877",
"a. c #A7877C",
"s. c #A9867B",
"d. c #A9877B",
"f. c #A2887B",
"g. c #A58878",
"h. c #A68979",
"j. c #A7887B",
"k. c #A6897F",
"l. c #A4897D",
"z. c #A8887F",
"x. c #AA887E",
"c. c #B58070",
"v. c #B48170",
"b. c #A38981",
/* pixels */
"v v v S S O.4.4.4.4.9.Y S v v v Y 4.4.4.4.4.4.4.4.4.4.4.4.4.4.Y S S ,.4.4.c.4.) p p < o + ",
"v v v S S O.4.4.4.4.9.Y S v v v Y 4.4.,.4.4.4.4.4.4.4.4.4.4.4.Y v Y &.;.;.%.4.) p p < o + ",
"v v k j j Y O.O.O.O.#.k j j Y v Y O.O.` S S ) O.O.O.O.O.O.O.O.Y l _ y.u.e.+.O.S j j 7 o + ",
"v v j p p j Y l l S S s p p v l v v v j p p j l l k B B B v v v l | s.x.r.S l l v S 9 . + ",
"v v j p p j S v v S S s p p v l v v v j p p j v v v l l l S S S Y ] g.k.r.v v S S S 9 . + ",
"v v k j j j h h h h h p p p v l k h h j j k j h j s a a a a a f f g [  .M 9 e i j j 4 . + ",
"l l Y S S h p p p p p p p p v l k p p h S S j p p 9 7 7 7 4 4 a a s k k s * , 4 s p < o + ",
"l l l v v j p a a a p p p p v v k p a f S S j p p 9 5 5 5 5 4 a a s k k f * = 4 a p < o + ",
"h h h h s j k k ! b { k j k h h p 9 9 r s s j k j j s s r r r 9 9 9 9 8 7 4 < 7 9 9 <   + ",
"p p p p p j Y S 0.f.g.^ l k p p r 4 7 9 a a j S S v v v s p a 5 7 7 , : < 7 7 5 7 7 * o + ",
"a a a a p j l S w.g.p.^ k k p a a 6 5 9 s s j v v v v v h p s 9 5 5 < - < 5 5 5 5 5 *   + ",
"6 6 e a p j Y S | ] ^ s p s 9 9 9 f j j k k k v v v v v k k k a a i r r r a r s j f 9 ; % ",
"5 5 e a p j Y S I I k s p a 4 7 9 S l l v v v Y l S S v v c v p p p p p p p p h v v i , = ",
"5 5 9 a a j k v v v k s p a 4 7 9 N N k k k k B B S S k Z v Z p p p a a p s s s v v i , , ",
"s a 9 * = 8 p p p p p p p a 4 7 1 = = % . . & 5 5 e p p  .d.s.9 4 4 * * 4 S v j p p 9 , , ",
"t p 9 : = 8 a p p p p p p a 4 7 4 * = % o o & 5 5 r p s q.b.x.9 7 4 = , 5 S v j p p 9 : , ",
"r r 5 & & 5 p p i a i r r r 9 9 5 < < : $ $ : 7 7 9 i i n q.0.q 9 5 < = 5 j j f r r 4 & & ",
"* : % + . 4 p p 9 5 7 , : * a p a 5 7 8 7 8 < > : * * * y a p p s d 5 7 5 4 7 < : : @ . . ",
"= , $ o o 2 p p 9 5 7 < , < a p i 7 7 7 7 7 < , , : : = e p p p p i 9 7 7 7 7 < , , % + o ",
"% % $ o o , 9 9 5 < < < * - 7 5 7 > > < < < : % % : : = 8 9 9 9 9 9 4 4 < , , & % % $ . . ",
"+ . + o + $ * * * * , , , * + + + + + + + + + + . % , , , = = = * > * * & . . . + + . . . ",
". . . o + $ , = = = , , , : . o o o o o o o + . . % , , , = = = = = = , % + o + + + . . . ",
"9 9 9 9 e y a a i e e d d d q q 9 < < & + + & 5 5 9 e e i a a a a a e y 9 5 5 8 q q 9 9 9 ",
"4.4.4.4.4.4.4.%.` l l %.c.c.c.c.` p p 5 + o 5 v v v v v #.4.4.4.=.#.v v v v v ` 4.4.4.4.4.",
"4.4.4.4.4.4.4.%.` Y v %.c.c.c.c.+.p p 5 . o 5 v v v v v #.4.4.4.;.#.Y k v v v O.4.4.4.4.4.",
"` ` ` ` ` ` ` O.Y v k e.u.v.....Y j j 9   O 5 v v j h h Y ` ` ` ` Y h h j v Y Y O.O.S k k ",
"l I Y v v v v v v v v t.b.g.S l l l l i o X 7 v v h p p k v v v v k p p s l l v v v j p p ",
"S v S S S Y S S S S S s.l.d.Z v S v S i . . 5 v v h p p k Y Y Y Y k p p s l l v Y S j p p ",
"s s p 9 e e 9 0 a s s ^ ] ~ 5 7 6 s s 0 % & 9 v v k k k h h h h s s r p s l k k h s j k k ",
"p s w 5 7 7 7 5 r p p B I k * , - p p 9 = = r l l l v Y h p p t p p p p s v v j p a j S I ",
"p p 0 4 5 4 5 4 r p p k S Z * = < s p 9 = = r v v v v Y h p a a s s p p s v v k p a f S S ",
"c k k k N f p a 9 5 5 < < < 5 5 7 9 5 4 = = 9 s p s p p k k Z w.g.:.k v k s p r 5 5 r p s ",
"v v v S Y j p a 9 5 8 , , = 7 5 7 7 7 4 = = 5 p p p p p k v S a.b.t.| v k p a r 7 7 9 a a ",
"v v v v v j p p 9 9 5 < < < 5 5 5 9 9 4 = = 5 a a a p p k v v r.s.w.Z v k a a r 9 9 r s s ",
"v v v v v v k k s a p a a a a a p k k a * = < 5 5 r p p k l c S | Z p p r 5 5 r k k v v k ",
"k Y Y I v v v v s p p p p p p p s v v s * = < 5 5 i s p k l v Y S k p p i 4 5 i S l v v v ",
"j j j m k Z | ] f i i r e r s s s k k a * = 4 9 9 9 y e j k k k k k p p a 7 4 9 f f f a s ",
"4 4 9 a p ! a.d.d 5 7 < = - S l k p p 9 = = 5 a a 5 : = e p p p p p p p a 7 4 < * , % . . ",
"5 5 9 s p n b.b.u 7 7 , : < S c c p p e * , 5 s s 4 , * e p p a p p p p a 7 5 < , , % o o ",
"< < 7 9 9 g *.{ d 9 9 < < < f s s 9 9 7 & % < 9 9 < % % e p p r i r 9 9 9 9 9 5 < < : % % ",
"* * = = = 9 p p p p a 5 7 7 5 4 2 : , % . + $ = = # . . 9 p p 6 5 < = * < a a r 4 7 7 5 5 ",
", , , * , 8 p s p p a 6 4 5 7 7 7 : , % . o $ : , $ + + 9 p p 6 5 4 = : < a p r 4 4 7 7 7 ",
"% % & , , 3 8 9 9 9 8 4 < < * : : % $ $ . . # $ $ $ % % 3 9 8 < < < , * < 8 5 5 < < > & : ",
"+ . $ , , , , : : , = = = , o o + + + . . . . + . % , , , = = = = , , * * * = = = = % o o ",
". . $ , , , , , , , : : : : . . o o o . . . . . . % = , , : : : , , , , , , : * * : % . + "
};
