/* XPM */
static char *_59188f27b514e499d817820c4252293GCbShvCcwxXbFKzL[] = {
/* columns rows colors chars-per-pixel */
"45 45 195 2 ",
"   c black",
".  c #5C423C",
"X  c #5C423C",
"o  c #5C423C",
"O  c #9D9183",
"+  c #AA9F91",
"@  c None",
"#  c #5C423C",
"$  c #510F1A",
"%  c #5F151E",
"&  c #A79381",
"*  c #B78F7C",
"=  c #C69482",
"-  c #D5D1BF",
";  c #DFDCCB",
":  c #B9AEA1",
">  c #510F1A",
",  c #721D23",
"<  c #A95648",
"1  c #B1715F",
"2  c #C1BCAA",
"3  c #B38376",
"4  c #A4988A",
"5  c #994A43",
"6  c #AE8779",
"7  c #B85745",
"8  c #BA9D8B",
"9  c #BDA18E",
"0  c #701D23",
"q  c #98342F",
"w  c #A65F51",
"e  c #B4806E",
"r  c #B66C59",
"t  c #928476",
"y  c #5B131D",
"u  c #7E2427",
"i  c #933B37",
"p  c #A5493D",
"a  c #A87465",
"s  c #874641",
"d  c #552025",
"f  c #5C423C",
"g  c #8B7870",
"h  c #DBD5CA",
"j  c #E9E7D6",
"k  c #DDDAC8",
"l  c #96877A",
"z  c #7D695F",
"x  c #705A51",
"c  c #55382B",
"v  c #66382F",
"b  c #692829",
"n  c #6A1A21",
"m  c #510F1A",
"M  c #C9C0B6",
"N  c #F7F6E8",
"B  c #EDEBDB",
"V  c #E1DECD",
"C  c #C8C3B1",
"Z  c #C08D7A",
"A  c #BD8977",
"S  c #A89E8E",
"D  c #532121",
"F  c #977853",
"G  c #866248",
"H  c #531F21",
"J  c #86746A",
"K  c #E3E0CF",
"L  c #C09184",
"P  c #C09C8D",
"I  c #BAAA99",
"U  c #BC725F",
"Y  c #AE5143",
"T  c #AF7466",
"R  c #8A2D2B",
"E  c #875240",
"W  c #55382B",
"Q  c #DBD8C6",
"!  c #C08576",
"~  c #B86452",
"^  c #BEB8A6",
"/  c #A8584C",
"(  c #95322E",
")  c #62161F",
"_  c #C4BFAD",
"`  c #D8D4C2",
"'  c #A96358",
"]  c #CBC6B4",
"[  c #B6604D",
"{  c #947567",
"}  c #91654B",
"|  c #56392D",
" . c #806D63",
".. c #88766C",
"X. c #79645C",
"o. c #BEAC9A",
"O. c #CBBBA8",
"+. c #AF5D4F",
"@. c #BBB5A3",
"#. c #BA8674",
"$. c #B84D3B",
"%. c #A7695B",
"&. c #712628",
"*. c #A47D58",
"=. c #5E312C",
"-. c #78443B",
";. c #8A786F",
":. c #BD9583",
">. c #BB4F3C",
",. c #B0A896",
"<. c #92302D",
"1. c #754F3B",
"2. c #B39365",
"3. c #6B1D22",
"4. c #B37667",
"5. c #CECAB8",
"6. c #583131",
"7. c #A87F6F",
"8. c #A43E33",
"9. c #B38E7F",
"0. c #BA9381",
"q. c #9E3931",
"w. c #A27A6C",
"e. c #7D2226",
"r. c #7E6143",
"t. c #892B2A",
"y. c #A96F64",
"u. c #9F5149",
"i. c #77504B",
"p. c #955B55",
"a. c #934541",
"s. c #A88173",
"d. c #8C2B2B",
"f. c #762225",
"g. c #510F1A",
"h. c #55382B",
"j. c #AD915F",
"k. c #73553E",
"l. c #542A25",
"z. c #5D1D21",
"x. c #681B21",
"c. c #651820",
"v. c #60171F",
"b. c #52151C",
"n. c #805743",
"m. c #997955",
"M. c #6A4D38",
"N. c #5C3E30",
"B. c #DAC383",
"V. c #84634A",
"C. c #74553F",
"Z. c #654735",
"A. c #510F1A",
"S. c #55382B",
"D. c #6D4F3A",
"F. c #BFA16B",
"G. c #AD905F",
"H. c #7D5D45",
"J. c #D4BB78",
"K. c #89694C",
"L. c #8D6D4E",
"P. c #56683E",
"I. c #568C4D",
"U. c #568C4D",
"Y. c #568C4D",
"T. c #50854B",
"R. c #675A3E",
"E. c #BEA268",
"W. c #A08259",
"Q. c #BD9D6A",
"!. c #A8875E",
"~. c #475335",
"^. c #53884C",
"/. c #568C4D",
"(. c #568C4D",
"). c #568C4D",
"_. c #518349",
"`. c #4E653D",
"'. c #958459",
"]. c #7E6C4C",
"[. c #45713F",
"{. c #4C7F48",
"}. c #637C43",
"|. c #816046",
" X c #6B6947",
".X c #5D7F45",
"XX c #517441",
"oX c #66984E",
"OX c #568C4D",
"+X c #406D3E",
"@X c #67954B",
"#X c #528549",
"$X c #578C4C",
"%X c #5D924E",
"&X c #568C4D",
/* pixels */
"                                                                                          ",
"                                                                                          ",
"                                                                                          ",
"                                                                                          ",
"                                                                                          ",
"                                                                                          ",
"                                                                                          ",
"                                                                                          ",
"                                                                                          ",
"                                                                                          ",
"                                                    . . X                                 ",
"                                                o o O + @ #                               ",
"                                            $ % & * = - ; : .                             ",
"                                            > , < 1 2 3 - 4 .                             ",
"                                              > 5 6 7 8 9 O .                             ",
"                                              $ 0 q w e r t .                             ",
"                                # o o o X       y u i p a s d                             ",
"                            f g h j k - l z x . c v b , n m                               ",
"                            . M N B V C Z A S t D F G H $                                 ",
"                            J K ; K L P I U Y T R E W                                     ",
"                            J Q Q Q Q ! ~ ^ 9 / ( ) W                                     ",
"                          o _ ` - ' ] ^ U [ & { , } | .  ...X.                            ",
"                          o o.O._ +.o.@.#.$.%.5 &.*.=.-.C ; ;.                            ",
"                          o :.:.^ >.:.@.,.%.<.0 1.2.3.4.2 5.J                             ",
"                          6.7.8.9.0.q.6 w.e.% $ r.r.% t.y.u.i.                            ",
"                          > p.a.u.s.d.d.f.% g.h.j.k.l.z.x.c.v.                            ",
"                            % , , , % b.n.m.M.N.B.V.C.Z.                                  ",
"                            g.A.A.A.g.S.D.F.G.H.J.K.L.P.I.                                ",
"                                    U.Y.T.R.E.W.Q.!.~.^./.I.                              ",
"                                  (.).^._.`.F Q.'.].[.{.).U.                              ",
"                                  (.).^._.}.|. X.XXXoX{.Y.OX                              ",
"                                    U.Y.Y.^.+X@X#XT.Y.Y.OX                                ",
"                                    U.).).^.$X%XT.Y.).).U.                                ",
"                                          OXU.  ).).                                      ",
"                                                &X&X                                      ",
"                                                                                          ",
"                                                                                          ",
"                                                                                          ",
"                                                                                          ",
"                                                                                          ",
"                                                                                          ",
"                                                                                          ",
"                                                                                          ",
"                                                                                          ",
"                                                                                          "
};
