/* XPM */
static char *result[] = {
/* columns rows colors chars-per-pixel */
"45 45 8 1 ",
"  c #3F3851",
". c #576789",
"X c #6D8A9D",
"o c #82A0AD",
"O c #8CA9B5",
"+ c #A7C6C6",
"@ c #C5DFD7",
"# c None",
/* pixels */
"#############################################",
"#############################################",
"#############################################",
"#############################################",
"#############################################",
"#############################################",
"#############################################",
"#############################################",
"#############################################",
"#############################################",
"#############################################",
"#############################################",
"#############################################",
"#############################################",
"#############################################",
"#############################################",
"#############################################",
"####################### #####################",
"###################### # ####################",
"#####################  ######################",
"#################### @+ #####################",
"###################oOOOX. ###################",
"################## +@O+oX. ##################",
"################# X@+OOOXX  #################",
"################# XOOOOOXX  #################",
"################# XOOOOOXX  #################",
"################# .oOOOXX.  #################",
"#################  XXXXX.   #################",
"################## .XXX.   ##################",
"###################       ###################",
"#############################################",
"#############################################",
"#############################################",
"#############################################",
"#############################################",
"#############################################",
"#############################################",
"#############################################",
"#############################################",
"#############################################",
"#############################################",
"#############################################",
"#############################################",
"#############################################",
"#############################################"
};
