/* XPM */
static char *result[] = {
/* columns rows colors chars-per-pixel */
"45 45 200 2 ",
"   c #510F1A",
".  c #55131C",
"X  c #61161F",
"o  c #651A21",
"O  c #6B1C22",
"+  c #721D23",
"@  c #5B2425",
"#  c #59392E",
"$  c #5B3B34",
"%  c #6C2627",
"&  c #6A2929",
"*  c #712326",
"=  c #792728",
"-  c #752B2D",
";  c #7C2A2B",
":  c #62332D",
">  c #6D322E",
",  c #732C30",
"<  c #653C30",
"1  c #6C3C31",
"2  c #7E3333",
"3  c #7C3B33",
"4  c #7F3A39",
"5  c #763B37",
"6  c #5C423C",
"7  c #67433B",
"8  c #6D4C3A",
"9  c #694334",
"0  c #71413D",
"q  c #774638",
"w  c #6A543B",
"e  c #7A533E",
"r  c #77513D",
"t  c #5B643F",
"y  c #48633B",
"u  c #684D46",
"i  c #794C46",
"p  c #7B5C43",
"a  c #7A5650",
"s  c #4D7D46",
"d  c #4A7241",
"f  c #547445",
"g  c #557944",
"h  c #5A7C46",
"j  c #5F7141",
"k  c #686A44",
"l  c #7F6144",
"z  c #786A48",
"x  c #667647",
"c  c #717D4C",
"v  c #7C685E",
"b  c #756057",
"n  c #7E6B62",
"m  c #842A2B",
"M  c #882A2A",
"N  c #802628",
"B  c #86312F",
"V  c #813232",
"C  c #8A3231",
"Z  c #8A3D3A",
"A  c #863935",
"S  c #943935",
"D  c #983D36",
"F  c #983E39",
"G  c #834A3C",
"H  c #95423C",
"J  c #84523F",
"K  c #8C4743",
"L  c #8D4F48",
"P  c #924642",
"I  c #9A4C45",
"U  c #954C46",
"Y  c #855843",
"T  c #90544D",
"R  c #9D554B",
"E  c #9F5046",
"W  c #9D5951",
"Q  c #945C54",
"!  c #895E55",
"~  c #A24E44",
"^  c #AA5B4D",
"/  c #A15349",
"(  c #B65846",
")  c #A65D51",
"_  c #836247",
"`  c #866B4A",
"'  c #8B6B4C",
"]  c #89644A",
"[  c #916E4E",
"{  c #93654B",
"}  c #85734E",
"|  c #8C704C",
" . c #89645B",
".. c #966359",
"X. c #9D635A",
"o. c #9A695D",
"O. c #8D7350",
"+. c #957B54",
"@. c #9A7854",
"#. c #AC6455",
"$. c #AC6C5D",
"%. c #A86457",
"&. c #B16D5D",
"*. c #B96B59",
"=. c #B76655",
"-. c #826D64",
";. c #8F6C60",
":. c #89776D",
">. c #88756B",
",. c #9C7C6D",
"<. c #927669",
"1. c #8D7D72",
"2. c #977E71",
"3. c #A86D62",
"4. c #A47A6C",
"5. c #AC7C6D",
"6. c #AA7265",
"7. c #B47564",
"8. c #BB7664",
"9. c #B47C6B",
"0. c #BB7A69",
"q. c #BE7F70",
"w. c #4F8249",
"e. c #52854A",
"r. c #558A4C",
"t. c #5A8B4B",
"y. c #558447",
"u. c #5E924E",
"i. c #62944C",
"p. c #7E8151",
"a. c #678E4A",
"s. c #8F8056",
"d. c #9E8459",
"f. c #9F8357",
"g. c #A3845B",
"h. c #A88A5E",
"j. c #AB915F",
"k. c #938274",
"l. c #97887C",
"z. c #988577",
"x. c #AB8F62",
"c. c #BA816F",
"v. c #AF9363",
"b. c #BA9D69",
"n. c #B49866",
"m. c #A58373",
"M. c #AC8A7B",
"N. c #B68372",
"B. c #BA8877",
"V. c #B48B7B",
"C. c #BB8C7B",
"Z. c #BC8370",
"A. c #B8917F",
"S. c #B1917F",
"D. c #BFA46B",
"F. c #C1A670",
"G. c #9C8F82",
"H. c #9F9184",
"J. c #A18F80",
"K. c #AA9788",
"L. c #BC9382",
"P. c #BC9B8A",
"I. c #B69888",
"U. c #A99C92",
"Y. c #BEA08E",
"T. c #ADA192",
"R. c #BEA593",
"E. c #B5AB9A",
"W. c #BCAC9A",
"Q. c #BBB09E",
"!. c #B7AEA0",
"~. c #BDB3A2",
"^. c #BFB5AA",
"/. c #C39E8F",
"(. c #C19886",
"). c #C4A695",
"_. c #C1AF9C",
"`. c #C9A99A",
"'. c #C3B09E",
"]. c #C5B5A4",
"[. c #CAB1A1",
"{. c #C3BCAB",
"}. c #C9BCAA",
"|. c #C6BDB1",
" X c #C6C1AF",
".X c #CBC4B4",
"XX c #CEC8B8",
"oX c #D2CCBB",
"OX c #D4C9B8",
"+X c #D5CFC1",
"@X c #D7D3C1",
"#X c #DBD5C4",
"$X c #DBD8C6",
"%X c #DFDBCA",
"&X c #DBD5C9",
"*X c #E0DDCC",
"=X c #E9E6D8",
"-X c #E8E6D5",
";X c #F5F3E5",
":X c None",
/* pixels */
":X:X:X:X:X:X:X:X:X:X:X:X:X:X:X:X:X:X:X:X:X:X:X:X:X:X:X:X:X:X:X:X:X:X:X:X:X:X:X:X:X:X:X:X:X",
":X:X:X:X:X:X:X:X:X:X:X:X:X:X:X:X:X:X:X:X:X:X:X:X:X:X:X:X:X:X:X:X:X:X:X:X:X:X:X:X:X:X:X:X:X",
":X:X:X:X:X:X:X:X:X:X:X:X:X:X:X:X:X:X:X:X:X:X:X:X:X:X:X:X:X:X:X:X:X:X:X:X:X:X:X:X:X:X:X:X:X",
":X:X:X:X:X:X:X:X:X:X:X:X:X:X:X:X:X:X:X:X:X:X:X:X:X:X:X:X:X:XG.:X:X:X:X:X:X:X:X:X:X:X:X:X:X",
":X:X:X:X:X:X:X:X:X:X:X:X:X:X:X:X:X:X:X:X:X:X:X:X:X:Xu u :.K.T.T.U.:X:X:X:X:X:X:X:X:X:X:X:X",
":X:X:X:X:X:X:X:X:X:X:X:X:X:X:X:X:X:X:X:X:X:X:X:XX  .z.m.V.P.{.XXoX{.:X:X:X:X:X:X:X:X:X:X:X",
":X:X:X:X:X:X:X:X:X:X:X:X:X:X:X:X:X:X:X:X:X:X:X:XO Q m.c.L.).[.XX$X{.:X:X:X:X:X:X:X:X:X:X:X",
":X:X:X:X:X:X:X:X:X:X:X:X:X:X:X:X:X:X:X:X:X:X:Xo + H ^ &.P.!.L.).oXE.:X:X:X:X:X:X:X:X:X:X:X",
":X:X:X:X:X:X:X:X:X:X:X:X:X:X:X:X:X:X:X:X:X:X:X:XX Z ) 5.9.q.V.R.'.T.:X:X:X:X:X:X:X:X:X:X:X",
":X:X:X:X:X:X:X:X:X:X:X:X:X:X:X:X:X:X:X:X:X:X:X:X. V U $.#.=.V.L.A.l.l.:X:X:X:X:X:X:X:X:X:X",
":X:X:X:X:X:X:X:X:X:X:X:X:X:X:X:X:X:X:X:X:X:X:X:X:X+ ; D ~ #.9.7.7.m.k.:X:X:X:X:X:X:X:X:X:X",
":X:X:X:X:X:X:X:X:X:X:X:X:X:X:X:X:X:X:X:X:X:X:X:X:Xo + M F / ^ $.$...! :X:X:X:X:X:X:X:X:X:X",
":X:X:X:X:X:X:X:X:X:X:X:X:X>.-.n n v v :X:X:X:X:X:X:XO = V S H E X.L :X:X:X:X:X:X:X:X:X:X:X",
":X:X:X:X:X:X:X:X:X:X:X:XU.oX+X+XXX.X~.H.>.v b :X:X:X# > > * = = , :X:X:X:X:X:X:X:X:X:X:X:X",
":X:X:X:X:X:X:X:X:X:X:XU.|.=X=X=X*XoX|.I.m.,.k.k.-.7 < e q q % O :X:X:X:X:X:X:X:X:X:X:X:X:X",
":X:X:X:X:X:X:X:X:X:X:X^.&X;X=X=X*XoX].L.C.Z.K.J.k.i 9 [ ' Y :X:X:X:X:X:X:X:X:X:X:X:X:X:X:X",
":X:X:X:X:X:X:X:X:X:X1.|.*X*X-X#X`.`.).).A.8.*.$.4.G V Y e 9 :X:X:X:X:X:X:X:X:X:X:X:X:X:X:X",
":X:X:X:X:X:X:X:X:X:X1.|.*X*X*X+X[./.L.A.A.B.7.&.&.H B 2 1 :X:X:X:X:X:X:X:X:X:X:X:X:X:X:X:X",
":X:X:X:X:X:X:X:X:X:X1.{.#X#X&X&X$X`.q.*.B.~.R.B.^ F M o @ :X:X:X:X:X:X:X:X:X:X:X:X:X:X:X:X",
":X:X:X:X:X:X:X:X:Xz.E.XX#X@X)./.XX}.(.8.8.c.S.m.%.G V G 9 # :X:X-.>.:X:X:X:X:X:X:X:X:X:X:X",
":X:X:X:X:X:X:X:X6 z.{.XXOXoXV.5.].].W.c.*.( 5.,...4 V { e # 7 ;.l.J.l.-.-.:X:X:X:X:X:X:X:X",
":X:X:X:X:X:X:X:X6 2.'.].|.|.q.7.R.~.W.A.*.( ) %.U V A @.e : 0 2.|.oX~.:.:.:X:X:X:X:X:X:X:X",
":X:X:X:X:X:X:X:X6 <.Y.).'.{.0.*.P.W.Q.I.c.^ ~ H V 3 J g.Y > T M.|.oX!.:.:.:X:X:X:X:X:X:X:X",
":X:X:X:X:X:X:X:X6  .A.B.L.!.0.*.c.P.E.T.m.R S = O q _ g.G = ) V.!.].K.-.-.:X:X:X:X:X:X:X:X",
":X:X:X:X:X:X:X:X# a 5.) 3.L.L.7.~ 3.M.m.Q m * O :Xr l ` q O A / 5.3.Q a a :X:X:X:X:X:X:X:X",
":X:X:X:X:X:X:X:X@ L o.R / 6.5.6.D I W T A + X :X:X' | l 9 X * 3 K G A 0 i :X:X:X:X:X:X:X:X",
":X:X:X:X:X:X:X:X  5 T K P I X.X.C M m = & % :X:X:Xg.f.e 8 :X@ X O X o :X:X:X:X:X:X:X:X:X:X",
":X:X:X:X:X:X:X:X:X:X, ; ; N V 2 + O % 5 Y ] r 9 6 v.b._ p 8 9 :X:X:X:X:X:X:X:X:X:X:X:X:X:X",
":X:X:X:X:X:X:X:X:X:X:X+ + + + O X . : q [ g.+._ 8 n.F.[ Y l w :X:X:X:X:X:X:X:X:X:X:X:X:X:X",
":X:X:X:X:X:X:X:X:X:X:X:X:X:X:X:X:X:X:Xw +.D.v.@.p b.F.O.' ` k :X:X:X:X:X:X:X:X:X:X:X:X:X:X",
":X:X:X:X:X:X:X:X:X:X:X:X:X:X:X:X:X:Xy.h z } h.x.+.n.b.@.z k g :X:X:X:X:X:X:X:X:X:X:X:X:X:X",
":X:X:X:X:X:X:X:X:X:X:X:X:X:X:X:X:Xr.r.e.f k d.x.x.v.v.+.k y s r.:X:X:X:X:X:X:X:X:X:X:X:X:X",
":X:X:X:X:X:X:X:X:X:X:X:X:X:X:X:Xr.r.r.w.f t } h.b.h.s.} k d s w.:X:X:X:X:X:X:X:X:X:X:X:X:X",
":X:X:X:X:X:X:X:X:X:X:X:X:X:X:X:Xr.r.e.e.g j z O.s.p.c x h y.w.w.:X:X:X:X:X:X:X:X:X:X:X:X:X",
":X:X:X:X:X:X:X:X:X:X:X:X:X:X:X:X:Xr.r.r.y.x k z x x g g t.i.e.r.:X:X:X:X:X:X:X:X:X:X:X:X:X",
":X:X:X:X:X:X:X:X:X:X:X:X:X:X:X:X:Xr.r.r.r.e.d g a.t.y.w.r.r.r.:X:X:X:X:X:X:X:X:X:X:X:X:X:X",
":X:X:X:X:X:X:X:X:X:X:X:X:X:X:X:X:X:Xr.r.r.w.s e.i.r.e.e.r.r.r.:X:X:X:X:X:X:X:X:X:X:X:X:X:X",
":X:X:X:X:X:X:X:X:X:X:X:X:X:X:X:X:X:X:X:Xr.r.r.u.u.r.r.r.r.:X:X:X:X:X:X:X:X:X:X:X:X:X:X:X:X",
":X:X:X:X:X:X:X:X:X:X:X:X:X:X:X:X:X:X:X:X:X:X:X:X:X:X:X:X:X:X:X:X:X:X:X:X:X:X:X:X:X:X:X:X:X",
":X:X:X:X:X:X:X:X:X:X:X:X:X:X:X:X:X:X:X:X:X:X:X:X:X:X:X:X:X:X:X:X:X:X:X:X:X:X:X:X:X:X:X:X:X",
":X:X:X:X:X:X:X:X:X:X:X:X:X:X:X:X:X:X:X:X:X:X:X:X:X:X:X:X:X:X:X:X:X:X:X:X:X:X:X:X:X:X:X:X:X",
":X:X:X:X:X:X:X:X:X:X:X:X:X:X:X:X:X:X:X:X:X:X:X:X:X:X:X:X:X:X:X:X:X:X:X:X:X:X:X:X:X:X:X:X:X",
":X:X:X:X:X:X:X:X:X:X:X:X:X:X:X:X:X:X:X:X:X:X:X:X:X:X:X:X:X:X:X:X:X:X:X:X:X:X:X:X:X:X:X:X:X",
":X:X:X:X:X:X:X:X:X:X:X:X:X:X:X:X:X:X:X:X:X:X:X:X:X:X:X:X:X:X:X:X:X:X:X:X:X:X:X:X:X:X:X:X:X",
":X:X:X:X:X:X:X:X:X:X:X:X:X:X:X:X:X:X:X:X:X:X:X:X:X:X:X:X:X:X:X:X:X:X:X:X:X:X:X:X:X:X:X:X:X"
};
