/* XPM */
static char *result[] = {
/* columns rows colors chars-per-pixel */
"45 45 12 1 ",
"  c #3F3851",
". c #AE444E",
"X c #CD7363",
"o c #BF5753",
"O c #89365C",
"+ c #D25654",
"@ c #E27F6D",
"# c #EDA27F",
"$ c #FBCA97",
"% c #FFEAB7",
"& c #FFFAD6",
"* c #9E3B57",
/* pixels */
"                                             ",
"                                             ",
"                                             ",
"                                             ",
"                 .XXXX.         .XXXXX.      ",
"         .oXXXo. XXXXXX .oXXXo. XXXXXXX      ",
"         oXXXXXo .XXXX. oXXXXXo .XXXXX.      ",
"                                             ",
"    .XXXXXX. .XXXX. .XXXXXX. .XXXX.          ",
"    XXXXXXXX XXXXXX XXXXXXXX XXXXXX          ",
"    .XXXXXX. .XXXX. .XXXXXX. .XXXX.          ",
"                                             ",
" .XXXXX. .XXXXX. .XXXX. .XXXXX. .XXXXX. .XXXX",
" XXXXXXX XXXXXXo oXXXXo oXXXXXo oXXXXXo XXXXX",
" .XXXXX. o.....O O....O O.....O O...oX. .XXXX",
"                                             ",
"   .XXXXXoO  O...O  O.....O        OoXXXXX. .",
"   XXXXXXX.                        .XXXXXXX X",
"   .XXXXXoO                        OoXXXXX. .",
"               +@@@@@+  +@@@@@+              ",
".XXXXX. o...O  @@@@@@@  @@@@@@@  O...o. .XXXX",
"XXXXXXX X....  @@@#$$$  $$$#@@@  ....XX XXXXX",
".XXXXX. o...O  @@#$$$$  $$$$#@@  O...o. .XXXX",
"               @@$$$$$  $$$$$@@              ",
"   .XXXXXoO    @@$$$$$  $$$$$@@    OoXXXXX.  ",
"   XXXXXXX.    +@$$%&%  %&%$$@+    .XXXXXXX  ",
"   .XXXXXoO                        OoXXXXX.  ",
"                                             ",
".XXXXX. o...O  +@$$%&%  %&%$$@+  O...o. .XXXX",
"XXXXXXX X....  @@$$$$$  $$$$$@@  ....XX XXXXX",
".XXXXX. o...O  @@$$$$$  $$$$$@@  O...o. .XXXX",
"               @@#$$$$  $$$$#@@              ",
"X. .XXXXXoO    @@@#$$$  $$$#@@@    OoXXXXX.  ",
"XX XXXXXXX.    @@@@@@@  @@@@@@@    .XXXXXXX  ",
"Xo .XXXXXoO    +@@@@@+  +@@@@@+    OoXXXXX.  ",
"                                             ",
" .XXXXX.                         O...X. .XXXX",
" XXXXXXX                O*....*O ....XX XXXXX",
" .XXXXX.         O....O *......* O...X. .XXXX",
"                                             ",
"    .XXXXXX. O....O O......O O....O .XXXXXX. ",
"    XXXXXXXX oXXXXo oXXXXXXo oXXXXo XXXXXXXX ",
"    .XXXXXX. .XXXX. .XXXXXX. .XXXX. .XXXXXX. ",
"                                             ",
" .XXXXX. .XXXXX. .XXXXX .XXXXXX.             "
};
