/* XPM */
static char *_4e5ba95806340a6cd88ef3a58352a3749yPJkKleIVTOEYF[] = {
/* columns rows colors chars-per-pixel */
"45 45 254 2 ",
"   c black",
".  c #5C423C",
"X  c #5C423C",
"o  c #5C423C",
"O  c #5C423C",
"+  c #5C423C",
"@  c #9D9183",
"#  c #AA9F91",
"$  c #A5978C",
"%  c #5C423C",
"&  c #510F1A",
"*  c #5F151E",
"=  c #A79381",
"-  c #B78F7C",
";  c #C69482",
":  c #D5D1BF",
">  c #DFDCCB",
",  c #B9AEA1",
"<  c #5C423C",
"1  c #510F1A",
"2  c #721D23",
"3  c #A95648",
"4  c #B1715F",
"5  c #C1BCAA",
"6  c #B38376",
"7  c #A4988A",
"8  c #5C423C",
"9  c #510F1A",
"0  c #994A43",
"q  c #AE8779",
"w  c #B85745",
"e  c #BA9D8B",
"r  c #BDA18E",
"t  c #9D9183",
"y  c #5C423C",
"u  c #510F1A",
"i  c #701D23",
"p  c #98342F",
"a  c #A65F51",
"s  c #B4806E",
"d  c #B66C59",
"f  c #928476",
"g  c #5C423C",
"h  c #5C423C",
"j  c #5C423C",
"k  c #5C423C",
"l  c #5B131D",
"z  c #7E2427",
"x  c #933B37",
"c  c #A5493D",
"v  c #A87465",
"b  c #874641",
"n  c #552025",
"m  c #5C423C",
"M  c #8B7870",
"N  c #DBD5CA",
"B  c #E9E7D6",
"V  c #DDDAC8",
"C  c None",
"Z  c #96877A",
"A  c #7D695F",
"S  c #705A51",
"D  c #5C423C",
"F  c #55382B",
"G  c #66382F",
"H  c #692829",
"J  c #6A1A21",
"K  c #510F1A",
"L  c #5C423C",
"P  c #C9C0B6",
"I  c #F7F6E8",
"U  c #EDEBDB",
"Y  c #E1DECD",
"T  c #C8C3B1",
"R  c #C08D7A",
"E  c #BD8977",
"W  c #A89E8E",
"Q  c #928476",
"!  c #532121",
"~  c #977853",
"^  c #866248",
"/  c #531F21",
"(  c #510F1A",
")  c #86746A",
"_  c #E3E0CF",
"`  c #DFDCCB",
"'  c #C09184",
"]  c #C09C8D",
"[  c #BAAA99",
"{  c #BC725F",
"}  c #AE5143",
"|  c #AF7466",
" . c #8A2D2B",
".. c #875240",
"X. c #55382B",
"o. c #DBD8C6",
"O. c #DBD8C6",
"+. c #C08576",
"@. c #B86452",
"#. c #BEB8A6",
"$. c #A8584C",
"%. c #95322E",
"&. c #62161F",
"*. c #55382B",
"=. c #5C423C",
"-. c #C4BFAD",
";. c #D8D4C2",
":. c #A96358",
">. c #CBC6B4",
",. c #B6604D",
"<. c #947567",
"1. c #91654B",
"2. c #56392D",
"3. c #5C423C",
"4. c #806D63",
"5. c #88766C",
"6. c #79645C",
"7. c #BEAC9A",
"8. c #CBBBA8",
"9. c #C4BFAD",
"0. c #AF5D4F",
"q. c #BEAC9A",
"w. c #BBB5A3",
"e. c #BA8674",
"r. c #B84D3B",
"t. c #A7695B",
"y. c #712628",
"u. c #A47D58",
"i. c #5E312C",
"p. c #78443B",
"a. c #C8C3B1",
"s. c #DFDCCB",
"d. c #8A786F",
"f. c #BD9583",
"g. c #BB4F3C",
"h. c #B0A896",
"j. c #92302D",
"k. c #754F3B",
"l. c #B39365",
"z. c #6B1D22",
"x. c #B37667",
"c. c #C1BCAA",
"v. c #CECAB8",
"b. c #86746A",
"n. c #583131",
"m. c #A87F6F",
"M. c #A43E33",
"N. c #B38E7F",
"B. c #BA9381",
"V. c #9E3931",
"C. c #A27A6C",
"Z. c #7D2226",
"A. c #510F1A",
"S. c #7E6143",
"D. c #892B2A",
"F. c #A96F64",
"G. c #9F5149",
"H. c #77504B",
"J. c #510F1A",
"K. c #955B55",
"L. c #934541",
"P. c #9F5149",
"I. c #A88173",
"U. c #8C2B2B",
"Y. c #8C2B2B",
"T. c #762225",
"R. c #510F1A",
"E. c #55382B",
"W. c #AD915F",
"Q. c #73553E",
"!. c #542A25",
"~. c #5D1D21",
"^. c #681B21",
"/. c #651820",
"(. c #60171F",
"). c #5F151E",
"_. c #721D23",
"`. c #721D23",
"'. c #52151C",
"]. c #805743",
"[. c #997955",
"{. c #6A4D38",
"}. c #5C3E30",
"|. c #DAC383",
" X c #84634A",
".X c #74553F",
"XX c #654735",
"oX c #510F1A",
"OX c #510F1A",
"+X c #510F1A",
"@X c #510F1A",
"#X c #55382B",
"$X c #6D4F3A",
"%X c #BFA16B",
"&X c #AD905F",
"*X c #7D5D45",
"=X c #D4BB78",
"-X c #89694C",
";X c #8D6D4E",
":X c #56683E",
">X c #568C4D",
",X c #568C4D",
"<X c #568C4D",
"1X c #50854B",
"2X c #675A3E",
"3X c #BEA268",
"4X c #A08259",
"5X c #BD9D6A",
"6X c #A8875E",
"7X c #475335",
"8X c #53884C",
"9X c #568C4D",
"0X c #568C4D",
"qX c #568C4D",
"wX c #53884C",
"eX c #518349",
"rX c #4E653D",
"tX c #958459",
"yX c #7E6C4C",
"uX c #45713F",
"iX c #4C7F48",
"pX c #568C4D",
"aX c #568C4D",
"sX c #568C4D",
"dX c #568C4D",
"fX c #53884C",
"gX c #637C43",
"hX c #816046",
"jX c #6B6947",
"kX c #5D7F45",
"lX c #517441",
"zX c #66984E",
"xX c #568C4D",
"cX c #568C4D",
"vX c #568C4D",
"bX c #568C4D",
"nX c #53884C",
"mX c #406D3E",
"MX c #67954B",
"NX c #528549",
"BX c #50854B",
"VX c #568C4D",
"CX c #568C4D",
"ZX c #568C4D",
"AX c #568C4D",
"SX c #578C4C",
"DX c #5D924E",
"FX c #50854B",
"GX c #568C4D",
"HX c #568C4D",
"JX c #568C4D",
"KX c #568C4D",
"LX c #568C4D",
"PX c #568C4D",
/* pixels */
"                                                                                          ",
"                                                                                          ",
"                                                                                          ",
"                                                                                          ",
"                                                                                          ",
"                                                                                          ",
"                                                                                          ",
"                                                                                          ",
"                                                                                          ",
"                                                                                          ",
"                                                    . X o                                 ",
"                                                O + @ # $ %                               ",
"                                            & * = - ; : > , <                             ",
"                                            1 2 3 4 5 6 : 7 8                             ",
"                                              9 0 q w e r t y                             ",
"                                              u i p a s d f g                             ",
"                                h j j j k       l z x c v b n                             ",
"                            m M N B V C Z A S D F G H 2 J K                               ",
"                            L P I U Y T R E W Q ! ~ ^ / (                                 ",
"                            ) _ ` _ ' ] [ { } |  ...X.                                    ",
"                            ) o.O.O.O.+.@.#.r $.%.&.*.                                    ",
"                          =.-.;.: :.>.#.{ ,.= <.2 1.2.3.4.5.6.                            ",
"                          j 7.8.9.0.q.w.e.r.t.0 y.u.i.p.a.s.d.                            ",
"                          j f.f.#.g.f.w.h.t.j.i k.l.z.x.c.v.b.                            ",
"                          n.m.M.N.B.V.q C.Z.* A.S.S.* D.F.G.H.                            ",
"                          J.K.L.P.I.U.Y.T.* R.E.W.Q.!.~.^./.(.                            ",
"                            )._.`.2 * '.].[.{.}.|. X.XXX                                  ",
"                            oXOX  +X@X#X$X%X&X*X=X-X;X:X>X                                ",
"                                    ,X<X1X2X3X4X5X6X7X8X9X0X                              ",
"                                    qXwXeXrX~ 5XtXyXuXiXpXaX                              ",
"                                  sXdXfXeXgXhXjXkXlXzXiXxXcX                              ",
"                                    vXbXbXnXmXMXNXBXVXCX                                  ",
"                                      ZXAX8XSXDXFXGXHXJXsX                                ",
"                                          aX    KXLX                                      ",
"                                                PXvX                                      ",
"                                                                                          ",
"                                                                                          ",
"                                                                                          ",
"                                                                                          ",
"                                                                                          ",
"                                                                                          ",
"                                                                                          ",
"                                                                                          ",
"                                                                                          ",
"                                                                                          "
};
