/* XPM */
static char *result[] = {
/* columns rows colors chars-per-pixel */
"37 45 126 2 ",
"   c #6E5967",
".  c #6C5C6B",
"X  c #6E5E6C",
"o  c #725A69",
"O  c #765B6A",
"+  c #755C69",
"@  c #765D6A",
"#  c #7B5E6B",
"$  c #7C5E6B",
"%  c #7A5D6C",
"&  c #7D5E6C",
"*  c #6A606F",
"=  c #7C626D",
"-  c #7F626D",
";  c #666776",
":  c #686372",
">  c #6F6371",
",  c #6B6574",
"<  c #6D6775",
"1  c #6F6977",
"2  c #636E7E",
"3  c #736975",
"4  c #726B79",
"5  c #746E7B",
"6  c #76717D",
"7  c #805F6D",
"8  c #845F6C",
"9  c #83616E",
"0  c #87666F",
"q  c #88646F",
"w  c #866070",
"e  c #856570",
"r  c #8A6370",
"t  c #8C6372",
"y  c #876971",
"u  c #886871",
"i  c #886972",
"p  c #8A6A72",
"a  c #8A6D75",
"s  c #906473",
"d  c #926673",
"f  c #926475",
"g  c #956972",
"h  c #926F75",
"j  c #966D76",
"k  c #986874",
"l  c #9B6877",
"z  c #977076",
"x  c #947379",
"c  c #987378",
"v  c #9D7079",
"b  c #9A777A",
"n  c #96797B",
"m  c #9B7B7C",
"M  c #9D7F7F",
"N  c #A26E76",
"B  c #A16B78",
"V  c #A46C79",
"C  c #A76D7A",
"Z  c #AA6F7A",
"A  c #B16A76",
"S  c #A2777B",
"D  c #AD707B",
"F  c #AE747A",
"G  c #A2787E",
"H  c #B8747B",
"J  c #B2787E",
"K  c #BB797E",
"L  c #677181",
"P  c #6C7583",
"I  c #647D8D",
"U  c #717886",
"Y  c #797984",
"T  c #757E8A",
"R  c #B47C82",
"E  c #C87E81",
"W  c #7A838E",
"Q  c #6B8392",
"!  c #6B8593",
"~  c #728A97",
"^  c #7E8892",
"/  c #79909C",
"(  c #79919D",
")  c #7D95A0",
"_  c #9D8282",
"`  c #9D8686",
"'  c #9D8A8A",
"]  c #A78082",
"[  c #AE8080",
"{  c #B98487",
"}  c #BC8785",
"|  c #BC8889",
" . c #BF8B89",
".. c #BE8C8B",
"X. c #86A0A8",
"o. c #DD8185",
"O. c #C1908E",
"+. c #C6958D",
"@. c #C39490",
"#. c #C69C94",
"$. c #E28989",
"%. c #E4908D",
"&. c #CCA496",
"*. c #D5A195",
"=. c #DAAD9C",
"-. c #DCB19E",
";. c #ECA598",
":. c #EEA89A",
">. c #F2B3A0",
",. c #F2B3A1",
"<. c #F3B4A2",
"1. c #F4B8A3",
"2. c #F5BAA5",
"3. c #D9C3B2",
"4. c #F8C2A9",
"5. c #F9C6AC",
"6. c #FBCAAE",
"7. c #F9CDB3",
"8. c #FBCEB2",
"9. c #FBD1B5",
"0. c #F7D1B8",
"q. c #F7D5BC",
"w. c #FBD5B9",
"e. c #FBD9BD",
"r. c #FAE0C4",
"t. c None",
/* pixels */
"t.t.t.t.t.t.t.n c = m M M ` ` ' M p p m M _ ` ` ' ` m = c n t.t.t.t.t.t.t.",
"t.t.t.t.t.y m -.>.b 4.6.6.e.e.r.6.+.+.4.6.9.e.e.r.e.4.b >.-.m y t.t.t.t.t.",
"t.t.t.t.#.3.7.6.6.M 6.6.6.6.6.6.6.&.&.6.6.6.6.6.6.6.6.M 6.6.7.3.#.t.t.t.t.",
"t.t.t.[ q.w.8.6.>.b 4.6.6.6.6.6.6.+.+.4.6.6.6.6.6.6.4.b >.6.8.w.q.[ t.t.t.",
"t.t.+.0.6.5.:.%.o.q K K K K K K K N N K K K K K K K K q o.%.:.5.6.0.+.t.t.",
"t.y =.6.5.,.%.E A o 7 9 9 9 9 9 %   * .   & 9 9 9 9 7 o A E %.,.5.6.=.y t.",
"t.m 5.6.1.%.F #   s Z D D D D D V   2 :   C D D D D Z s   # F %.1.6.5.m t.",
"h *.6.6.;.E #     & 9 9 9 9 9 9 9   2 :   9 9 9 9 9 9 &     # E ;.6.6.*.h ",
"M 6.6.6.$.K   w D D D D D D D D f   2 :                       K $.6.6.6.M ",
"m 4.6.4.K   t C D  .@.@.@.@.@. .D   U 1   J  .@.@.@.@.@.} C t   K 4.6.4.m ",
"= b M b q   $ 9 9 a a a a a a a 9   L ,   e a a a a a a a 9 $   q b M b = ",
"p +.&.+.N       k ] ] ] ] ] ] ] ] r P < k ] ] ] ] ] ] ] k       N +.&.+.p ",
"M 6.6.6.K : Q I   @.@.@.@.@.@.@.@.] 2 : @.@.@.@.@.@.@.@.  I Q : K 6.6.6.M ",
"' r.6.6.K > W T 9 @.@.@.@.@.@.@.@.] U 1 @.@.@.@.@.@.@.@.9 T W > K 6.6.r.' ",
"_ 9.6.6.K $ G ] | @.@.@.@.@.@.@.@.v W 5 R @.@.@.@.@.@.@.| ] G $ K 6.6.9._ ",
"` e.6.6.K + i a a a a a a a a a a $ ^ 6 9 a a a a a a a a a i + K 6.6.e.` ",
"M 6.6.6.K                           ^ 6 D @.@.@.@.@.@.@.@.@.| 9 K 6.6.6.M ",
"M 6.6.6.K & C D D D D D D D D D D t T 4 @.@.@.@.@.@.@.@.@.@.@.a K 6.6.6.M ",
"b 2.6.2.K & C D D D D D D D D D D t T 4 R @.@.@.@.@.@.@.@.@...e K 2.6.2.b ",
"= b M b q o 7 9 9 9 9 9 9 9 9 9 9 O U 1 9 a a a a a a a a a i + q b M b = ",
"c >.6.>.K 9 | @.@.@.@.@.@.@.@.@.@.k 2 : D @.@.@.@.@.@.@.@.@.| 9 K >.6.>.c ",
"_ 9.6.6.K a @.@.@.@.@.@.@.@.@.@.| x ; * ] ..@.@.@.@.@.@.@.@.@.a K 6.6.9._ ",
"' r.6.6.K e ..@.@.@.@.@.@.@.@. .9 ^ 3 Y ^ j  .@.@.@.@.@.@.@...e K 6.6.r.' ",
"_ 9.6.6.K + i a a a a a a a a u   ) 6 T X.@ u a a a a a a a i + K 6.6.9._ ",
"' r.6.6.K                         / 6 U X.9 R @.@.@.@.@.@.@.| 9 K 6.6.r.' ",
"M 6.6.6.K   t C D D D D D D D B   / 6 U X.a @.@.@.@.@.@.@.@.@.a K 6.6.6.M ",
"M 6.6.6.K   d Z D D D D D D D C   / 6 U X.i ..@.@.@.@.@.@.@.O.i K 6.6.6.M ",
"b 2.6.2.K   O 7 9 9 9 9 9 9 9 &   / 6 U X.+ e a a a a a a a i + K 2.6.2.b ",
"          9 | @.@.@.@.@.@.@.@.R   / 6 U X.                                ",
"b 2.6.2.K a @.@.@.@.@.@.@.@.@.@.  / 6 U X.& B D D D D D D C t   K 2.6.2.b ",
"_ 9.6.6.K i O.@.@.@.@.@.@.@.@...  / 6 U X.7 C D D D D D D Z d   K 6.6.9._ ",
"' r.6.6.K + i a a a a a a a a e   / 6 U X.o & 9 9 9 9 9 9 7 O   K 6.6.r.' ",
"M 6.6.6.K 9 | @.@.@.@.@.@.@.@.}   ! 6 2 X.0 } @.@.@.@.@.@.@.@.a K 6.6.6.M ",
"` e.6.6.K X 5 4 k @.@.@.@.@.@.@.R - 2 : 0 { @.@.@.@.@.@.k 4 5 X K 6.6.e.` ",
"M 6.6.6.K < ( ~   @.@.@.@.@.@.@.@.S L , } @.@.@.@.@.@.@.  ~ ( < K 6.6.6.M ",
"M 6.6.6.K . < , k @.@.@.@.@.@.@.@.v U 1 @.@.@.@.@.@.@.@.k , < . K 6.6.6.M ",
"c >.6.>.K                           U 1                         K >.6.>.c ",
"= b M b q & C D D D D D D D D D l   L , R @.@.@.@.@.@.@.@.@...e q b M b = ",
"b 2.6.2.K 7 Z D D D D D D D D D V   P < @.@.@.@.@.@.@.@.@.@.@.a K 2.6.2.b ",
"` e.6.6.K o 7 9 9 9 9 9 9 9 9 9 %   P < R @.@.@.@.@.@.@.@.@...e K 6.6.e.` ",
"' r.6.6.K                           L , 9 a a a a a a a a a i + K 6.6.r.' ",
"m 4.6.4.K e ..@.@.@.@.@.@.@.@.@.@.v 2 :   9 9 9 9 9 9 9 9 9 $   K 4.6.4.m ",
"z ;.<.;.H i O.@.@.@.@.@.@.@.@.@.@.G 2 :   C D D D D D D D Z d   H ;.<.;.z ",
"# g g g 8 + i a a a a a a a a a a $ * .   & 9 9 9 9 9 9 9 7 O   8 g g g # ",
"                                                                          "
};
