/* XPM */
static char *e795e0e44d544568eea8d73ac703ab1bLJP7QKe6mCH8ZtI6[] = {
/* columns rows colors chars-per-pixel */
"45 45 106 2 ",
"   c None",
".  c #000000",
"X  c #0B0807",
"o  c #0D0908",
"O  c #130E0C",
"+  c #17110E",
"@  c #1A120F",
"#  c #161616",
"$  c #1C1412",
"%  c #1D1D1D",
"&  c #221613",
"*  c #241915",
"=  c #251B18",
"-  c #2A1F1B",
";  c #2F201C",
":  c #33231E",
">  c #201F20",
",  c #242324",
"<  c #282728",
"1  c #2C2C2C",
"2  c #332622",
"3  c #3D2B25",
"4  c #332D2D",
"5  c #3C2D29",
"6  c #302F30",
"7  c #343233",
"8  c #3F3432",
"9  c #3C3A3B",
"0  c #46281E",
"q  c #4A2F27",
"w  c #442F29",
"e  c #45312B",
"r  c #4A322B",
"t  c #52372F",
"y  c #51382F",
"u  c #58392F",
"i  c #4A3630",
"p  c #4F3A34",
"a  c #563C34",
"s  c #5F3C31",
"d  c #5D4037",
"f  c #654338",
"g  c #6C483D",
"h  c #403F40",
"j  c #434243",
"k  c #484748",
"l  c #4D4C4D",
"z  c #594641",
"x  c #504F50",
"c  c #545354",
"v  c #5B5656",
"b  c #595759",
"n  c #5C5B5C",
"m  c #6C4B41",
"M  c #714C41",
"N  c #745044",
"B  c #7A5145",
"V  c #7D5549",
"C  c #74645F",
"Z  c #615F61",
"A  c #646364",
"S  c #696769",
"D  c #6C6B6C",
"F  c #706F70",
"G  c #757475",
"H  c #787778",
"J  c gray47",
"K  c #797879",
"L  c #7C7C7C",
"P  c #895F52",
"I  c #8D6356",
"U  c #906557",
"Y  c #92675A",
"T  c #807F80",
"R  c #818181",
"E  c #828082",
"W  c #828182",
"Q  c #838283",
"!  c #848284",
"~  c #848384",
"^  c #858485",
"/  c #868486",
"(  c #868686",
")  c #878687",
"_  c gray53",
"`  c #888788",
"'  c #898789",
"]  c #898889",
"[  c #8A888A",
"{  c #8B8B8B",
"}  c gray55",
"|  c #8E8C8E",
" . c #8F8E8F",
".. c gray57",
"X. c #929192",
"o. c #949394",
"O. c #9D9B9D",
"+. c gray62",
"@. c #A29FA2",
"#. c #A1A0A1",
"$. c #A2A1A2",
"%. c #A2A2A2",
"&. c #A3A2A3",
"*. c #A5A4A5",
"=. c #B1B0B1",
"-. c #B4B2B4",
/* pixels */
"                                                                                          ",
"                                                                                          ",
"                                                                                          ",
"                                    6 A j l A n <                                         ",
"                              j ' c 2 e 3 3 e 5 7 D j                                     ",
"                          ] ' 7 4 w y . . . . V q 4 4 R l                                 ",
"                        A j 5 r B . . . . . . . * U f 3 4 j                               ",
"                      S S : N Y . . . . . . . . . . B g p v Z                             ",
"                      | 9 s m . . . . . . . . . . . . V P 2 9 c                           ",
"                    9 l 8 r . . . . . . . . . . . . . . I a D A                           ",
"                    ! 9 r . . . . . . . . . . . . . . . . f 3 l b                         ",
"                  A h 5 ; . . . . . . . . . . . . . . . . M d n l %                       ",
"                7 @.S i . . . . . . . . . . . . . . . . . . g H ! l                       ",
"                1 | k - . . . . . . . . . . . . . . . . . . g A D 1                       ",
"                < S l = . . . . . . . . . . . . . . . . . . g b A 7                       ",
"                , R l + . . . . . . . . . . . . . . . . . . C D G 7                       ",
"                7 ..A $ . . . . . . . . . . . . . . . . . . c b n j                       ",
"                7 $.A $ . . . . . . . . . . . . . . . . . . l j F h                       ",
"                , c 9 $ . . . . . . . . . . . . . . . . . . z l l <                       ",
"                7 $.A = . . . . . . . . . . . . . . . . . . t H ] j                       ",
"                % c 9 = . . . . . . . . . . . . . . . . . . r c n 1                       ",
"                , G ^ 2 . . . . . . . . . . . . . . . . . . 3 ' *.A                       ",
"                < G c - . . . . . . . . . . . . . . . . . . : A D 9                       ",
"                < F x : . . . . . . . . . . . . . . . . . . & j l 7                       ",
"                7 $.G 5 . . . . . . . . . . . . . . . . . . & F A j                       ",
"                , A 9 3 . . . . . . . . . . . . . . . . . . O A x <                       ",
"                  ] n e . . . . . . . . . . . . . . . . . . @ D K h                       ",
"                  ^ j e . . . . . . . . . . . . . . . . . . O S S 1                       ",
"                  ! b r . . . . . . . . . . . . . . . . . . = A D 9                       ",
"                  =.G i . . . . . . . . . . . . . . . . . . = H o.l                       ",
"                  ..l e . . . . . . . . . . . . . . . . . . : D G 6                       ",
"                  l 1 w . . . . . . . . . . . . . . . . . . r x c 1                       ",
"                  D K p . . . . . . . . . . . . . . . . . . r ' $.Z                       ",
"                  T x 2 . . . . . . . . . . . . . . . . . . i H R 9                       ",
"                  l 1 = . . . . . . . . . . . . . . . . . . 1 9 9 >                       ",
"                  -.] - . . . . . . . . . . . . . . . . . . < ^ ^ l                       ",
"                  +.^ = . . . . . . . . . . . . . . . . . . , c S l                       ",
"                  o.n $ . . . . . . . . . . . . . . . . . . : b n 7                       ",
"                  A 9 @ . . . . . . . . . . . . . . . . . . : c c 1                       ",
"                  O.H O . . . . . . . . . . . . . . . . . . : H ^ l                       ",
"                  +.n O . . . . . . . . . . . . . . . . . . w H H 7                       ",
"                  L h o . . . . . . . . . . . . . . . . . . a S b 1                       ",
"                  G k X . . . . . . . . . . . . . . . . . . u c A 7                       ",
"                  | l . . . . . . . . . . . . . . . . . . . 0 K R 9                       ",
"                      . . . . . . . . . . . . . . . . . . .     7 #                       "
};
