/* XPM */
static char *result[] = {
/* columns rows colors chars-per-pixel */
"37 45 96 2 ",
"   c #6E5967",
".  c #725A69",
"X  c #765B6A",
"o  c #755C69",
"O  c #7B5E6B",
"+  c #7C5E6B",
"@  c #7A5D6C",
"#  c #7D5E6C",
"$  c #7E5E6D",
"%  c #71616E",
"&  c #7C626D",
"*  c #686372",
"=  c #6D6775",
"-  c #6D6876",
";  c #636E7E",
":  c #776675",
">  c #7C6171",
",  c #7E6372",
"<  c #736975",
"1  c #726B79",
"2  c #706E7C",
"3  c #76717D",
"4  c #805F6D",
"5  c #845F6C",
"6  c #83616E",
"7  c #88646F",
"8  c #866070",
"9  c #8C6372",
"0  c #876971",
"q  c #8A6A72",
"w  c #926673",
"e  c #926475",
"r  c #936674",
"t  c #956972",
"y  c #926F75",
"u  c #986874",
"i  c #9B6877",
"p  c #977076",
"a  c #987378",
"s  c #9A777A",
"d  c #96797B",
"f  c #9B7B7C",
"g  c #9D7F7F",
"h  c #A06B77",
"j  c #A26E76",
"k  c #A16B78",
"l  c #A46C79",
"z  c #A76D7A",
"x  c #AA6F7A",
"c  c #B16A76",
"v  c #AD707B",
"b  c #AE747A",
"n  c #B8747B",
"m  c #BB797E",
"M  c #677181",
"N  c #717886",
"B  c #757E8A",
"V  c #C87E81",
"C  c #6B8392",
"Z  c #6B8593",
"A  c #6D8493",
"S  c #728896",
"D  c #748C99",
"F  c #9D8282",
"G  c #9D8686",
"H  c #9D8A8A",
"J  c #AE8080",
"K  c #DD8185",
"L  c #C6958D",
"P  c #C69C94",
"I  c #E28989",
"U  c #E4908D",
"Y  c #CCA496",
"T  c #D5A195",
"R  c #DAAD9C",
"E  c #DCB19E",
"W  c #ECA598",
"Q  c #EEA89A",
"!  c #F2B3A0",
"~  c #F2B3A1",
"^  c #F3B4A2",
"/  c #F4B8A3",
"(  c #F5BAA5",
")  c #D9C3B2",
"_  c #F8C2A9",
"`  c #F9C6AC",
"'  c #FBCAAE",
"]  c #F9CDB3",
"[  c #FBCEB2",
"{  c #FBD1B5",
"}  c #F7D1B8",
"|  c #F7D5BC",
" . c #FBD5B9",
".. c #FBD9BD",
"X. c #FAE0C4",
"o. c None",
/* pixels */
"o.o.o.o.o.o.o.d a & f g g G G H g q q f g F G G H G f & a d o.o.o.o.o.o.o.",
"o.o.o.o.o.0 f E ! s _ ' ' ....X.' L L _ ' { ....X..._ s ! E f 0 o.o.o.o.o.",
"o.o.o.o.P ) ] ' ' g ' ' ' ' ' ' ' Y Y ' ' ' ' ' ' ' ' g ' ' ] ) P o.o.o.o.",
"o.o.o.J |  .[ ' ! s _ ' ' ' ' ' ' L L _ ' ' ' ' ' ' _ s ! ' [  .| J o.o.o.",
"o.o.L } ' ` Q U K 7 m m m m m m m j j m m m m m m m m 7 K U Q ` ' } L o.o.",
"o.0 R ' ` ~ U V c o # .                           . # o c V U ~ ` ' R 0 o.",
"o.f ` ' / U b O   r z 4                           4 z r   O b U / ' ` f o.",
"y T ' ' W V O     # 6 o                           o 6 #     O V W ' ' T y ",
"g ' ' ' I m   8 v l @                                         m I ' ' ' g ",
"f _ ' _ m   9 z v x 4                                 w v z 9   m _ ' _ f ",
"& s g s 7   + 6 6 4 .                                 X 6 6 +   7 s g s & ",
"q L Y L j     $ u u 9 X                             X w u $     j L Y L q ",
"g ' ' ' m 3 Z * v v v 6                             6 v v * Z 3 m ' ' ' g ",
"H X.' ' m < B : v v v 6                             6 v v : B < m ' ' X.H ",
"F { ' ' m X w h v v k #                             # z v h w X m ' ' { F ",
"G ..' ' m . 4 6 6 6 # .                             . 4 6 6 4 . m ' ' ..G ",
"g ' ' ' m                                         @ i v v v l @ m ' ' ' g ",
"g ' ' ' m # z v v z #                             6 v v v v v 6 m ' ' ' g ",
"s ( ' ( m # z v v z #                             # k v v v z # m ( ' ( s ",
"& s g s 7 . 4 6 6 4 .                             . # 6 6 6 4 . 7 s g s & ",
"a ! ' ! m @ l v v 8                                     e v l @ m ! ' ! a ",
"F { ' ' m 6 v v v u                                     v v v 6 m ' ' { F ",
"H X.' ' m # z v v 9   2 N                         N 2   i v z # m ' ' X.H ",
"F { ' ' m . 4 6 6 X   M S                         A M   @ 6 4 . m ' ' { F ",
"H X.' ' m             ; S                         C ;     i l @ m ' ' X.H ",
"g ' ' ' m   9 z v     ; S                         C ;     v v 6 m ' ' ' g ",
"g ' ' ' m   w x v     ; S                         C ;     z x 4 m ' ' ' g ",
"s ( ' ( m   X 4 6     ; S                         C ;     # 4 . m ( ' ( s ",
"          @ l v v 8   ; S                         C ;                     ",
"s ( ' ( m 6 v v v u   ; S                         C ;   i z 9   m ( ' ( s ",
"F { ' ' m 4 x v v w   ; S                         C ;   l x w   m ' ' { F ",
"H X.' ' m . 4 6 6 X   ; S                         C ;   @ 4 X   m ' ' X.H ",
"g ' ' ' m @ l v v 8   ; S                         C ; 8 v v l @ m ' ' ' g ",
"G ..' ' m % 1 , v u                                   u v , 1 % m ' ' ..G ",
"g ' ' ' m 3 D = v u                                   u v = D 3 m ' ' ' g ",
"g ' ' ' m % - > v 9                                   9 v > - % m ' ' ' g ",
"a ! ' ! m                                                       m ! ' ! a ",
"& s g s 7 # z v v z #                               # z v v z # 7 s g s & ",
"s ( ' ( m 4 x v v x 4                               6 v v v v 6 m ( ' ( s ",
"G ..' ' m . 4 6 6 4 .                               # z v v z # m ' ' ..G ",
"H X.' ' m                                           . 4 6 6 4 . m ' ' X.H ",
"f _ ' _ m # z v v 9                                   X 6 6 +   m _ ' _ f ",
"p W ^ W n 4 x v v w                                   9 v x w   n W ^ W p ",
"O t t t 5 . 4 6 6 X                                   + 6 4 X   5 t t t O ",
"                                                                          "
};
