/* XPM */
static char *df671f69934a44dece18c028407b4c91uYyFvtC27JoOMWbE[] = {
/* columns rows colors chars-per-pixel */
"45 45 234 2 ",
"   c None",
".  c #161616",
"X  c #1B1B1B",
"o  c #1F1E1F",
"O  c #34241F",
"+  c #201F20",
"@  c #222122",
"#  c #222222",
"$  c #232323",
"%  c #242324",
"&  c #252525",
"*  c #272627",
"=  c #282828",
"-  c #292829",
";  c #2D2B2D",
":  c #2C2C2C",
">  c #2D2C2D",
",  c #2E2C2E",
"<  c #2F2F2F",
"1  c #372620",
"2  c #362621",
"3  c #312724",
"4  c #392721",
"5  c #392A26",
"6  c #3C2A25",
"7  c #3E2A25",
"8  c #3E2B25",
"9  c #3F2C26",
"0  c #362B29",
"q  c #302C2E",
"w  c #312E2F",
"e  c #362E2C",
"r  c #3B2C28",
"t  c #3A2E2A",
"y  c #3C2D29",
"u  c #302F30",
"i  c #313031",
"p  c #323232",
"a  c #333233",
"s  c #353030",
"d  c #343234",
"f  c #343334",
"g  c #353435",
"h  c #363536",
"j  c #3F3432",
"k  c #393839",
"l  c #393939",
"z  c #3A383A",
"x  c #3B393B",
"c  c #3B3A3B",
"v  c #3D3838",
"b  c #3F3939",
"n  c #3C3B3C",
"m  c #3D3B3D",
"M  c #3E3D3E",
"N  c #3E3E3E",
"B  c #3F3E3F",
"V  c #46281E",
"C  c #4A2F27",
"Z  c #412E28",
"A  c #432F28",
"S  c #422F29",
"D  c #502D22",
"F  c #433029",
"G  c #43302A",
"H  c #44302A",
"J  c #44312B",
"K  c #45312B",
"L  c #45312C",
"P  c #45322C",
"I  c #46322D",
"U  c #47332D",
"Y  c #47332E",
"T  c #48342E",
"R  c #48352F",
"E  c #4E352D",
"W  c #4A3731",
"Q  c #4B3731",
"!  c #4F3832",
"~  c #4F3C35",
"^  c #563D36",
"/  c #5C3B31",
"(  c #5F3C31",
")  c #5D3F36",
"_  c #523E38",
"`  c #533F39",
"'  c #5D4037",
"]  c #54403A",
"[  c #634338",
"{  c #674338",
"}  c #6D473B",
"|  c #6B483D",
" . c #68483E",
".. c #6F493E",
"X. c #403E40",
"o. c #403F40",
"O. c #413F41",
"+. c #414041",
"@. c #424042",
"#. c #424142",
"$. c gray26",
"%. c #434243",
"&. c #444344",
"*. c #454345",
"=. c #454445",
"-. c #4F4747",
";. c #484648",
":. c #484748",
">. c #484848",
",. c #4B494B",
"<. c gray29",
"1. c #4B4A4B",
"2. c #4C4C4C",
"3. c #4D4C4D",
"4. c #4E4C4E",
"5. c #4F4D4F",
"6. c #4E4E4E",
"7. c #4F4E4F",
"8. c gray31",
"9. c #5D4944",
"0. c #504E50",
"q. c #504F50",
"w. c #515051",
"e. c #525152",
"r. c #535153",
"t. c #535253",
"y. c #555355",
"u. c gray33",
"i. c #575455",
"p. c #565556",
"a. c #575657",
"s. c #5B5656",
"d. c #595759",
"f. c #5C5758",
"g. c #595859",
"h. c #5A585A",
"j. c #5A5A5A",
"k. c #5B5A5B",
"l. c #5B5B5B",
"z. c #5C5A5C",
"x. c #5C5B5C",
"c. c #5D5D5D",
"v. c #5F5D5F",
"b. c #5F5E5F",
"n. c #5F5F5F",
"m. c #745044",
"M. c #755044",
"N. c #7A5145",
"B. c #71534A",
"V. c #7E5549",
"C. c #7F5649",
"Z. c #7F574A",
"A. c #74645F",
"S. c #605F60",
"D. c #615F61",
"F. c #606060",
"G. c gray38",
"H. c #626262",
"J. c #636263",
"K. c #646364",
"L. c #656365",
"P. c #666366",
"I. c #656465",
"U. c #666466",
"Y. c #666566",
"T. c #676667",
"R. c #686768",
"E. c #696769",
"W. c #686868",
"Q. c #6A696A",
"!. c #6B6A6B",
"~. c #6E6B6B",
"^. c #6C696C",
"/. c #6D6B6D",
"(. c #6C6C6C",
"). c #6D6D6D",
"_. c #6E6D6E",
"`. c #6F6D6F",
"'. c gray43",
"]. c #6F6F6F",
"[. c #706F70",
"{. c #717071",
"}. c #717171",
"|. c #727172",
" X c #737273",
".X c gray45",
"XX c #747374",
"oX c #777577",
"OX c #777677",
"+X c #777777",
"@X c #787778",
"#X c gray47",
"$X c #797879",
"%X c #7C7C7C",
"&X c #845B4E",
"*X c #895F52",
"=X c #8A5F52",
"-X c #8C6154",
";X c #906557",
":X c #936759",
">X c #92675A",
",X c #807F80",
"<X c #818181",
"1X c #828082",
"2X c #828182",
"3X c #838283",
"4X c #848284",
"5X c #848384",
"6X c #858485",
"7X c #868486",
"8X c #868686",
"9X c #878687",
"0X c gray53",
"qX c #888788",
"wX c #898789",
"eX c #898889",
"rX c #8A888A",
"tX c #8B8B8B",
"yX c gray55",
"uX c #8E8C8E",
"iX c #8F8E8F",
"pX c gray57",
"aX c #929192",
"sX c #949394",
"dX c #9D9B9D",
"fX c gray62",
"gX c #A29FA2",
"hX c #A1A0A1",
"jX c #A2A1A2",
"kX c #A2A2A2",
"lX c #A3A2A3",
"zX c #A5A4A5",
"xX c #B1B0B1",
"cX c #B4B2B4",
/* pixels */
"                                                                                          ",
"                                                                                          ",
"                                                                                          ",
"                                    u P.$.,.F.z.*                                         ",
"                              =.wXi.3 P 8 8 K t s ^.$.                                    ",
"                          eXwXa e S m.        Z.C 0 q <X8.                                ",
"                        U.$.t E N.              Z.;X[ 8 q *.                              ",
"                      Q.E.O m.>X                    =X..! s.D.                            ",
"                      uXb ( -X                        Z.=X2 c t.                          ",
"                    n 8.j }                             >X^ ~.U.                          ",
"                    4Xb )                                 { 5 8.h.                        ",
"                  F.O.y &X                                Z.' c.8.o                       ",
"                g gXQ.W                                     | oX4X,.                      ",
"                < uX;.S                                     | P.`.<                       ",
"                * Q.8.K                                     | h.F.g                       ",
"                # <X8.S                                     A.`.|.a                       ",
"                a pXF.R                                     y.h.c.$.                      ",
"                a jXF.P                                     8.=.[.O.                      ",
"                # t.c S                                     9.8.,.=                       ",
"                f jXU.P                                     | @XeX$.                      ",
"                X i.M G                                     | t.c.<                       ",
"                # |.6X`                                     | wXzXF.                      ",
"                * |.i.P                                     | U.`.c                       ",
"                = [.q.P                                     | $.8.g                       ",
"                g jX|.W                                     | [.U.$.                      ",
"                % F.n S                                     | F.q.=                       ",
"                  eXc.P                                     | ^.$XO.                      ",
"                  6X*.G                                     | Q.E.;                       ",
"                  4Xh.R                                     | P.`.M                       ",
"                  xX|.W                                     | oXsX8.                      ",
"                  pX,.K                                     | `.XXu                       ",
"                  8.< K                                     | q.t.<                       ",
"                  `.$X`                                     | wXjXD.                      ",
"                  ,Xq.P                                     B.oX<Xc                       ",
"                  ,.< 9                                     f.c c +                       ",
"                  cXeX]                                     t.6X6X8.                      ",
"                  fX6X`                                     -.i.E.8.                      ",
"                  sXz.P                                     | h.c.f                       ",
"                  U.M G                                     | t.t.<                       ",
"                  dXoX~                                     | oX6X,.                      ",
"                  fXz.R                                     | oXoXf                       ",
"                  %XO.S                                     | Q.d.<                       ",
"                  |.;.4                                     / i.F.g                       ",
"                  uX8.2 D                                   V $X<Xc                       ",
"                                                                a .                       "
};
