/* XPM */
static char *a86268528f4348a6e008eb2e8cac0355lPEBkxarZyiNyuej[] = {
/* columns rows colors chars-per-pixel */
"45 45 162 2 ",
"   c #060502",
".  c #090503",
"X  c #070807",
"o  c #0A0805",
"O  c #070708",
"+  c #0D070B",
"@  c #0E090B",
"#  c #10070C",
"$  c #110D0C",
"%  c #15140E",
"&  c #18150F",
"*  c #13180E",
"=  c #0D0D10",
"-  c #120E12",
";  c #151512",
":  c #191613",
">  c #171915",
",  c #191916",
"<  c #171419",
"1  c #19151A",
"2  c #161A18",
"3  c #1C1C1C",
"4  c #1F211E",
"5  c #1E1D22",
"6  c #1F1F29",
"7  c #201F25",
"8  c #201F29",
"9  c #1F2026",
"0  c #1E2129",
"q  c #212025",
"w  c #22232B",
"e  c #25282D",
"r  c #29292E",
"t  c #232731",
"y  c #242730",
"u  c #242631",
"i  c #262630",
"p  c #262730",
"a  c #262731",
"s  c #262732",
"d  c #262730",
"f  c #282730",
"g  c #262930",
"h  c #272931",
"j  c #252832",
"k  c #242833",
"l  c #252833",
"z  c #272832",
"x  c #262932",
"c  c #272932",
"v  c #262833",
"b  c #272933",
"n  c #272A33",
"m  c #272A34",
"M  c #272B36",
"N  c #262933",
"B  c #282830",
"V  c #282831",
"C  c #282931",
"Z  c #282A31",
"A  c #2A2B30",
"S  c #292933",
"D  c #282B32",
"F  c #2A2A33",
"G  c #292C33",
"H  c #292A34",
"J  c #282B34",
"K  c #2A2A34",
"L  c #2B2A34",
"P  c #2B2B34",
"I  c #282B37",
"U  c #292B37",
"Y  c #2B2B36",
"T  c #282C34",
"R  c #292C34",
"E  c #282C35",
"W  c #292C35",
"Q  c #2A2C34",
"!  c #2A2D34",
"~  c #2B2C35",
"^  c #2A2D35",
"/  c #282C36",
"(  c #292C36",
")  c #292D36",
"_  c #282C37",
"`  c #292C37",
"'  c #292D37",
"]  c #2A2C36",
"[  c #2A2D36",
"{  c #2B2D36",
"}  c #2A2C37",
"|  c #2C2C34",
" . c #292C36",
".. c #292B38",
"X. c #2C2A38",
"o. c #292C38",
"O. c #292D38",
"+. c #2A2C38",
"@. c #2A2C39",
"#. c #2B2E38",
"$. c #2A2E39",
"%. c #2D2F3B",
"&. c #2A2C38",
"*. c #2C3039",
"=. c #2D3039",
"-. c #2D303A",
";. c #2D313A",
":. c #2D303B",
">. c #2E303A",
",. c #2E313B",
"<. c #2E303C",
"1. c #2E323C",
"2. c #2F323C",
"3. c #2F333C",
"4. c #2E323D",
"5. c #2F323D",
"6. c #2F323E",
"7. c #2E313A",
"8. c #31323A",
"9. c #30333D",
"0. c #31333D",
"q. c #30323E",
"w. c #30343D",
"e. c #31343D",
"r. c #32353E",
"t. c #32353E",
"y. c #36393F",
"u. c #333740",
"i. c #333642",
"p. c #343740",
"a. c #343642",
"s. c #373943",
"d. c #363844",
"f. c #363944",
"g. c #373945",
"h. c #363943",
"j. c #393C45",
"k. c #3A3D44",
"l. c #3A3D45",
"z. c #393D46",
"x. c #393D47",
"c. c #3A3D46",
"v. c #3B3D46",
"b. c #3A3D47",
"n. c #3B3D47",
"m. c #393E47",
"M. c #393F47",
"N. c #3A3E46",
"B. c #3A3E47",
"V. c #3B3E47",
"C. c #3C3C45",
"Z. c #3D3D46",
"A. c #3A3D46",
"S. c #383D48",
"D. c #393D48",
"F. c #393D49",
"G. c #3A3C48",
"H. c #3B3D48",
"J. c #3B3D49",
"K. c #3A3E48",
"L. c #3D3D49",
"P. c #3A3D49",
/* pixels */
"q q F C.G.x.x.x.i.W W w.x.x.x.C.G.0.#...d.G.x.x.x.x.%.W W d.G.G.x.x.G.,.W U #.#.U q q 8 O ",
"q 6 U G.G.x.x.x.i.W W w.x.x.x.C.G.1.U #.d.G.G.x.L.L.,.W W s.x.x.x.x.x.,.W U U ..g q 0 q . ",
"q q u ,.,.#.g g b W W U g F 8.C.x.0.W W %.1.,.U F r 5 , 3 3 4 9 u F e w w w w q w g g U . ",
"q 6 w W U g 9 0 w #.W u q q | C.x.1.W W U W W w 0 9 , % % % % ; 5 8 8 8 8 8 q q q U W U X ",
"q 8 w W W g 0 0 t #.U t 0 0 W G.G.1.W W U #.W w q 5 > * ; ; ; ; 5 q 9 9 8 q 8 9 0 U W W . ",
"q 8 w W W #.w.0.1...U b g g W 1.1.w 3 3 q e w 3 , , ; % ; q q w u u u 3 , , u g g W W W . ",
"9 9 w W W 1.x.x.i.W W W W W W W W 3 ; ; 5 q q , % % % % ; e W W W W W , % % F #.W W W W O ",
"0 0 w W W ,.x.x.p.W W #...W W W D 3 > ; 5 q q , ; ; ; ; , e W W W W F , % ; r X.U U U F . ",
"b g u w q t ,.,.W w w b U W g w w 9 5 3 e F g e e e 5 3 5 g W W w w q , % ; ; < < 3 3 3   ",
"W W g 0 9 w W W g 8 q u W W u 8 q 9 9 9 g W W W W W w 8 q g ..W q q 9 , % % + + + % & %   ",
"W W g w 0 w U U u 8 8 e F g e q q 0 0 0 g U b b b b w 0 q g U U q 5 5 > % % + + $ % & %   ",
"W U U b b u q q q q 8 q q w 0 9 q w g b w w w w w w 0 0 0 w w q , , > $ + + + + + % * %   ",
"W #.U #...u 8 q q q 8 q 6 0 0 9 5 g W W w 8 8 q 9 q q q q q 8 q ; % % @ + + + + + % * %   ",
"D D W W #.g 0 8 q q q 8 8 8 5 q q g #.U q q q q q q q 8 7 8 8 q ; ; ; @ + + + + o % % %   ",
"; ; 3 q 0 w U ......U 5 + + $ ; > 5 q q 5 8 8 , ; ; + + + ; ; ; % ; % @ + + ; % ; 7 q 7 . ",
"; % , q q w #.#.W #.#.5 + + $ % ; 3 q q q q q > % ; # + + % % % % % % # + # & % ; 8 8 q . ",
"; % , 5 5 q ..#.W b U 5 + + % > > 3 5 5 3 3 3 > * & # + + % % % ; : ; $ + + ; ; , 8 8 q . ",
"% % % ; ; 5 W W g 0 0 3 % % , 8 8 , ; ; ; ; ; % % ; # + + + + + 5 q 5 > % % 5 9 5 0 0 q . ",
"% % % % % 3 W W g 9 9 , & ; 3 q q , ; % % % % % ; ; # + + + + + 5 q q : % ; 5 q 5 9 q q . ",
"; % % % % , e e q 3 3 , % % 1 5 5 : % % % % % % % % # + + + + + 5 7 5 ; % ; 5 5 5 5 5 3 . ",
"+ + + + + O .         . + + + + + .                       o + + + + + + + + + + + + + + + ",
"+ + + + + O           . + + + + + .                       + + + + + + + + + + + + + + + + ",
"< < < ; ; ; ; ; ; ; ; ; ; ; ; ; < - = @ .           o o o - ; ; < < < < < < 1 1 < < < ; < ",
"x.G.t.U U ,.j.x.x.x.k.e.W U W U U U W D @     o + + % % ; e W W s.x.x.x.x.x.x.x.G.%.U U G.",
"x.G.p.U W ,.G.x.x.x.k.w.#.W W W W _ _ W @     + + + % % * e #.#.d.x.x.x.x.x.x.x.x.%.#.W x.",
"s.d.0.U U ,.d.x.d.s.y.3.#.W W U g _ #.W @     + - = > , 2 e b b s.s.d.G.G.G.x.x.x.%.#.#.d.",
"5 6 8 8 q w W W g 8 9 w #.W u q q u U W =   . 3 q q g W U q q 0 U W W #.#.W x.x.x.%.#.U #.",
"5 6 q q q w W W g 8 9 w _ W u q q g U W =   . 5 q 8 U #...w 6 0 U W W U U W x.x.d.%.W W W ",
"5 5 5 8 8 q W W g e e b W W g w w b W W @     , 3 5 e U U g u g ,.,.,.W ..U p.d.p.#.U W g ",
"; ; , 8 8 q W W ,.x.x.i.U U U W W W W W @     % % ; 5 q w p.G.x.x.x.x.,.U #.#.#.#.U U W w ",
"% % , q q w W W 1.x.x.i...#.#.W W W W W @     % % % 5 q q s.x.x.x.x.x.,.U ..U #.#.#...#.w ",
"3 3 5 q 6 q g g %.s.s.1.g b b W W g e e @     > 3 3 q e w ,.p.w.s.s.s.%.W U b U g g g g w ",
"W W u 8 8 q q 9 w #.#.u 9 6 u #.W 3 ; ; o   . q W W W W W w q 0 U W W W W W w q q q q 9 U ",
"W W u 8 5 5 q q e #...u q q e W W 3 ; % o   . w #.U W W W w q 0 b #.#.W W W w 6 6 8 q q U ",
"W W u 8 9 0 w w u g b w 3 3 q g g 3 ; % o   . w U U %.,.,.t w w g b g e e e q 6 9 5 5 5 u ",
"_ W f 8 q w U U u 9 0 , % ; , 9 9 , ; % o   . w U U s.x.x.,.#.U 0 q q , ; ; 5 0 3 ; ; > 5 ",
"W W f q 8 w #.U g q 8 , % % , q q , ; % o   . w #.U d.x.G.,.U W q q q : % % 5 q 3 ; % ; 7 ",
"g b e 3 3 q F g w 3 3 , % % : 3 3 ; % ; .     w #.U i.d.p.#.g r 5 3 3 ; % % 3 3 3 ; % % 3 ",
"9 0 3 % * , q q 3 ; % % % % $ + + o + + .     q U #.#.#.U w 0 9 > % % + + + % % % + + o ; ",
"7 8 3 ; % 1 8 q 3 % % & % & $ + + + + + .   . w #.#.#.#.U w q q > ; ; # + + ; ; ; + + # ; ",
"3 3 , $ % ; 1 1 > % % % % % $ $ $ + + + .   . 9 u u u e e 5 3 3 > ; % $ + + $ $ $ + + # - ",
"; ; % + + + + + $ ; % % + + $ % ; $ + + .   . 5 q 8 q 5 q , ; % % % % $ + + + + + + + + + ",
"; ; % + + + + + $ ; ; % + + $ % % $ + +     . 3 q q q q q ; % % % % ; @ + + + + + + + + + ",
"@ $ + . O O + + + $ $ $ + + + @ @ o . .       ; > > < < ; % $ $ @ @ @ + + + + + + o o . . ",
"          . + + + + + + + + .                             o + +       + + + + + +         "
};
