/* XPM */
static char *result[] = {
/* columns rows colors chars-per-pixel */
"45 45 22 1 ",
"  c #3F3851",
". c #25667E",
"X c #E44B3B",
"o c #B9355C",
"O c #DA4949",
"+ c #E36254",
"@ c #F07860",
"# c #EF895A",
"$ c #CD8674",
"% c #F69972",
"& c #F6C27D",
"* c #5F7D93",
"= c #298A91",
"- c #37AB9C",
"; c #768EA1",
": c #8CA9B5",
"> c #DEB19C",
", c #ECD4BE",
"< c #FFEFA9",
"1 c #A5C2C7",
"2 c #F2F7F6",
"3 c None",
/* pixels */
"333333333333333333333333333333333333333333333",
"333333333333333333333333333333333333333333333",
"333333333333333333333333333333333333333333333",
"333333333333333333333333333333333333333333333",
"333333333333333333333333333333333333333333333",
"333333333333333333333333333333333333333333333",
"333333333333333333333333333333333333333333333",
"333333333333333333333333333333333333333333333",
"333333333333333333333333333333333333333333333",
"3333333333333333333    33      3  33333333333",
"333333333333333333 X#&#  #&&<&< <& 3333333333",
"333333333333333333 ##&&  &&   < << 3333333333",
"333333333333333333 ##&&#&&&# #<&<< 3333333333",
"333333333333333333 X#&&#&&&&&&<&<& 3333333333",
"333333333333333333                 3333333333",
"33333333333333333 *; *;;1 111 21 22 333333333",
"33333333333333333                   333333333",
"33333333333333333  oOOOOO$>>>>>$OO  333333333",
"333333333333333333 OOOO+> ,,,,, >+ 3333333333",
"333333333333333333 OO+@@,,,@@@@,,@ 3333333333",
"333333333333333333 oO@@@@@@@@ @@@@ 3333333333",
"333333333333333333  O+O@@@%@@%%@@@ 3333333333",
"33333         3333   OO@@@@@@@@@@@ 3333333333",
"3333 21222121: 33 >$ o +O@@@@@@@@+ 3333333333",
"3333 1:::::::; 3 ,,>   OO@+O@@+O+O  333333333",
"3333 1:1:::1:; 3 ,,>$  o OOOOOO OO , 33333333",
"3333 1:;:::;:; 3 ,  $$   oO oOo o  > 3  33333",
"3333 1:::::::;                        12 3333",
"3333 1:::::::;   **:::1112122211:::*  :1 3333",
"3333 1:::::::;                        *: 3333",
"3333 1:::::::; 3333               3333  33333",
"3333 1:1:::1:; 3333 .====--=-===. 33333333333",
"3333 1:;:::;:; 3333 =.         .= 33333333333",
"3333 :;;;;;;;* 3333 . 333333333 . 33333333333",
"33333         33333  3333333333  333333333333",
"333333333333333333333333333333333333333333333",
"333333333333333333333333333333333333333333333",
"333333333333333333333333333333333333333333333",
"333333333333333333333333333333333333333333333",
"333333333333333333333333333333333333333333333",
"333333333333333333333333333333333333333333333",
"333333333333333333333333333333333333333333333",
"333333333333333333333333333333333333333333333",
"333333333333333333333333333333333333333333333",
"333333333333333333333333333333333333333333333"
};
