/* XPM */
static char *_218e76396524afaeb4c74cdcd3a343dqPkuISiUPfl4FENA[] = {
/* columns rows colors chars-per-pixel */
"45 45 228 2 ",
"   c None",
".  c #140F04",
"X  c #171705",
"o  c #261C07",
"O  c #2A240B",
"+  c #322407",
"@  c #342D0A",
"#  c #382909",
"$  c #36320E",
"%  c #3C310D",
"&  c #3F3B0F",
"*  c #2A271A",
"=  c #352C16",
"-  c #3C3414",
";  c #35311C",
":  c #3B351C",
">  c #373414",
",  c #3E3C21",
"<  c #3C362C",
"1  c #443A0D",
"2  c #43340E",
"3  c #57380B",
"4  c #423413",
"5  c #433C14",
"6  c #4C3D14",
"7  c #423C19",
"8  c #4A3918",
"9  c #573914",
"0  c #5C3D15",
"q  c #513B14",
"w  c #603E1B",
"e  c #423C33",
"r  c #493D39",
"t  c #3F4011",
"y  c #58450D",
"u  c #4B4213",
"i  c #4D4B13",
"p  c #4D4B1E",
"a  c #4C411B",
"s  c #534D15",
"d  c #564A19",
"f  c #5B4C1A",
"g  c #594617",
"h  c #5A531B",
"j  c #44420C",
"k  c #61430E",
"l  c #634512",
"z  c #644914",
"x  c #6A4C1A",
"c  c #66471A",
"v  c #6D5016",
"b  c #65521B",
"n  c #6C521B",
"m  c #635A1B",
"M  c #645515",
"N  c #73551C",
"B  c #785B1E",
"V  c #4B4425",
"C  c #4C4824",
"Z  c #4C492A",
"A  c #474427",
"S  c #5C4B24",
"D  c #534C2A",
"F  c #554923",
"G  c #5C5321",
"H  c #585629",
"J  c #4C4538",
"K  c #534E35",
"L  c #524C3C",
"P  c #5B4D3C",
"I  c #5B4838",
"U  c #5A5538",
"Y  c #644D25",
"T  c #645323",
"R  c #695525",
"E  c #645D24",
"W  c #6C5A24",
"Q  c #62512D",
"!  c #6A5B2C",
"~  c #68582D",
"^  c #725D24",
"/  c #7B5C24",
"(  c #725D2C",
")  c #765827",
"_  c #635534",
"`  c #6C5534",
"'  c #635A32",
"]  c #6A5D34",
"[  c #65533C",
"{  c #6C5A3B",
"}  c #755D32",
"|  c #6B6425",
" . c #63602B",
".. c #696229",
"X. c #676325",
"o. c #7E6125",
"O. c #736924",
"+. c #73632A",
"@. c #7C632C",
"#. c #7C6B2D",
"$. c #766828",
"%. c #7B722D",
"&. c #6B6534",
"*. c #756333",
"=. c #7C6433",
"-. c #746B33",
";. c #7D6A32",
":. c #736438",
">. c #7A6539",
",. c #7D6A39",
"<. c #7D7432",
"1. c #7C713A",
"2. c #7F7A3D",
"3. c #767035",
"4. c #4B4546",
"5. c #544946",
"6. c #5A4C48",
"7. c #574F51",
"8. c #715C40",
"9. c #675954",
"0. c #645549",
"q. c #6D6144",
"w. c #7B6B44",
"e. c #756245",
"r. c #766A55",
"t. c #635761",
"y. c #776962",
"u. c #825E25",
"i. c #84652C",
"p. c #846B2D",
"a. c #896A2B",
"s. c #86652B",
"d. c #86762E",
"f. c #93712F",
"g. c #836533",
"h. c #836B35",
"j. c #8C6C32",
"k. c #846B3C",
"l. c #896D3C",
"z. c #906E33",
"x. c #906F3B",
"c. c #847333",
"v. c #8C7335",
"b. c #847B34",
"n. c #83713B",
"m. c #8B743B",
"M. c #857C3A",
"N. c #8D7B3C",
"B. c #8B7A36",
"V. c #937335",
"C. c #93743C",
"Z. c #947C3C",
"A. c #9B7C3B",
"S. c #977739",
"D. c #876E40",
"F. c #8D7243",
"G. c #8B7A43",
"H. c #83744B",
"J. c #877745",
"K. c #947443",
"L. c #947C43",
"P. c #9B7D43",
"I. c #9D7B4A",
"U. c #967A46",
"Y. c #877556",
"T. c #937E53",
"R. c #A37B49",
"E. c #8A8037",
"W. c #8B823B",
"Q. c #87813E",
"!. c #9C843D",
"~. c #95803E",
"^. c #A3833D",
"/. c #8C8444",
"(. c #8B854A",
"). c #948442",
"_. c #9B8342",
"`. c #948B43",
"'. c #9A8B46",
"]. c #9B844B",
"[. c #9B8B4B",
"{. c #94894D",
"}. c #9C934C",
"|. c #989147",
" X c #9B9451",
".X c #978255",
"XX c #A28444",
"oX c #A58A44",
"OX c #A98F46",
"+X c #A4864B",
"@X c #A48D4C",
"#X c #AA8D4A",
"$X c #AC924C",
"%X c #A39A4E",
"&X c #B1944E",
"*X c #B2994E",
"=X c #A18A50",
"-X c #AB8E53",
";X c #A98E59",
":X c #A39352",
">X c #AB9354",
",X c #A49B53",
"<X c #A89F54",
"1X c #AC925C",
"2X c #AA9D5A",
"3X c #B39653",
"4X c #B49A53",
"5X c #B99E55",
"6X c #B49B5B",
"7X c #BA9C5A",
"8X c #B3975E",
"9X c #AAA257",
"0X c #ADA35D",
"qX c #A6A056",
"wX c #BCA25C",
"eX c #B5A459",
"rX c #998467",
"tX c #B99F60",
"yX c #A8956C",
"uX c #BCA263",
"iX c #B4AB65",
"pX c #BCB16A",
"aX c #C1A45D",
"sX c #C3A463",
"dX c #C4AA6C",
"fX c #CBAC6C",
"gX c #C3A964",
"hX c #D0B16E",
/* pixels */
"                                                                                          ",
"                                                                                          ",
"                                                                                          ",
"                                          P _ P                                           ",
"                                    ` ` ` ( ) R ~ ` ` [                                   ",
"                            5._ =.h.k.l.m.h.} h.l.m.l.h.>._                               ",
"                          J F ( ;.;.L.-X-X].L.].1X1X].m.h.-.'                             ",
"                        < = u R R ;.L.>X=Xl.=.F.;X1Xm.#.b T f 7                           ",
"                        V :.L.[.=X>X6X8Xm.) =.=.U.8X>X@X].L.].,.                          ",
"                        :.;.m.L.:X@X_.Z.@.;.h.g.g.C.Z.@X@XZ.c.;.]                         ",
"                  r.U = ] ;.( *.,.m.j.a.P.].>X=XL.h.@.k.:.' ! ;.S : r.r.                  ",
"                ] ] a o f N.w.&.J.m.j.C.-X7XdXuX3XP.v.k.w.[ ,.N.u 4 J.k.! q.              ",
"            Q T k.G @ O G._.3X4XXXXXXXP.>X6XdXuX3X+X>X].p.#X-XXXG.+ d =.*.g Q             ",
"          :.@.h.=.1 o 4 N.A.#X&X*X3X_.@.m.>XuX>Xv.@.@X>XZ.A.XXXXv.6 + >.K.h.=.8.          ",
"        e.;.C.j.( 4 8 *.a.oX3XaXaXZ.^ ( W ^ h.W ^ #.^ L.>X&XoXV./ ,.- Y I.C.K.@.q.        ",
"        U.g.C.s.R % 4 ;.$X3X7XsX5XZ.h.;.L.c.p.m.m.N.c._.7XaXwX#XU.+.8 4 @.j.z.j.D.        ",
"      Y.U.C.R.K.} # % h.XX3X7X3XeX4XOX$X7XfXsXfX3X_.#XwX5X$X7X#X_.#.1 + l.I.R.K.U.e.      ",
"      .XC.x.x.g.T # 8 B.p.B V.>XuXuXwXaXfXhXfXfXfX7XwXgXgX>XC.o.p.v.u o ( C.K.K.K.F.      ",
"    rXF.g.} ~ >.( # ~ @XZ.v.n l i.C.+X&X7XsXsX7X7X&XoXA./ k N v.Z.[.m 2 } =.n ) =.F.Y.    ",
"    yXh.k.` I { h.q n.4XZ._.s.l 3 3 l v ) / i./ N v l 3 3 z j.P.v.oX^ W m.[ r S ,.D.rX    ",
"  y.{.G.        G.S +.5X^.oXXXN z x 0 9 0 g 0 w 9 q c ) N i.#XA.s.!.Y Y m.9.  5.Q k.T.    ",
"  y.H.            6.d $X*XOX#Xj.v o.s.j.j.s.s.a.V.j.j.s.N A.$XA.v.c.I 6.9.t.    6.0.H.    ",
"                    a !.4X*X&XXXN N i.z.A.^.XXXXA.f.s.N / $X4X3XoXc.P                     ",
"                    D Z.4XaX4X&XXXl x o.C.V.A.V.V.u.x n XX&X5XaX4X).0.                    ",
"                    K c.4XgX*X4XoXm.f y n ^ N N n y z L.$XOX$X5X$XN.                      ",
"                    L W !.4XoX!.A.oX'.^ #.m.m.c.@.^ v._.XXXXoX#XOX#.                      ",
"                      S d.XX!.f.v.~.c.h.:X6X6X6X@Xv.v.Z.S.XXXXXX!.T                       ",
"                      V T m.v.p.c.+.M ).uXuXdXdX4XA.p.v.C.L.Z.m.+.5.                      ",
"                      ; @ f W ;.;.f b @XuXdXfXtX>XZ.o.@.h.n.^ d 6                         ",
"                      * : (.+.f T d f ].6XwX7X#X#XZ.b b R f ! J.'                         ",
"                      ; :  XiXG.u 1 6 *.).>X@X_.Z.#.6 2 u ;.[.`.-.                        ",
"                      A p qX0X|.G.h % @ G 1.n.#.S + + 6 1.M.`.|.M.                        ",
"                      K H 9X%X|.b.X.' O X O O o . O D s <.b.'.<Xb.K                       ",
"                      Z ..0X9X%XO.<.-.$ , ; * * O @ -.<.O.,X0X<X%.D                       ",
"                      A -.0XpX,X#. X<.s &.L   L H i /.,Xb.0XpX}.%.D                       ",
"                      C -.{.2X).<.,XM.m &.J   e  .E `.,XB.[.2XM.-.C                       ",
"                      Z 2.m | O.<.}./.m ..J   J E O.}.<Xb.<.X.h 3.C                       ",
"                      U {./.s M %.,XW.m G     e E %.}.9XW.m s G.(.K                       ",
"                      U ,X0XW.O.c.}.<.h C     r p | }.<X).b.,XiX,X                        ",
"                      U }.,XW.b.b.W.X.j ,       : h M.}.E.W.9XpX,X                        ",
"                      L 2.|.`.d.c.c.h t e       : i X.W.W.W.<X9XM.                        ",
"                      5. .M.W.%.#.+.u $         < 5 h b.W.b.}.`.E                         ",
"                      7.p M.b.%.+.T & ;         4.$ s O.d.b.`.b.i                         ",
"                      7.$ X.O.%.M.E $ e           < u M.,XE.E.| 7                         ",
"                        =  .W.,X}.E ;             4.7 Q.iX,X}.E A                         "
};
