/* XPM */
static char *_0eb727c094e4f21b3a70766b7d810f5qQmi8wFh8grQftYx[] = {
/* columns rows colors chars-per-pixel */
"45 45 17 1 ",
"  c None",
". c #E07438",
"X c #C64524",
"o c #8E251D",
"O c #657392",
"+ c #92A1B9",
"@ c white",
"# c #C7CFDD",
"$ c #131313",
"% c #424C6E",
"& c #DF7126",
"* c #5D2C28",
"= c #2A2F4E",
"- c #391F21",
"; c #FFC825",
": c #FFA214",
"> c #ED7614",
/* pixels */
"                                             ",
"                                             ",
"                                             ",
"                                             ",
"                                             ",
"                                             ",
"                                             ",
"                                             ",
"                                             ",
"                    ....                     ",
"                   ......                    ",
"                   .XXooO++@                 ",
"                  .XXXoO++##@                ",
"                  .XXoO++####@               ",
"                  .XoOO++#####@              ",
"                 ..XoOO++#####@              ",
"                 .XooOO++$#$#$+              ",
"                  Xo OOO+$+$#$+              ",
"                  oo  OOO++$+$+              ",
"                  o    OOO++++               ",
"                  o    oOOOOO                ",
"                 oo   %OOo&                  ",
"                     %O++Ooo                 ",
"                    %O+++O+#                 ",
"                    O%+##++#                 ",
"                   O++%O++++*****            ",
"                   O+#%OOOO=----*            ",
"                   O+#%%%%=+----*            ",
"                   O+#%%;%OO+---*            ",
"                    %%oo:++++++++++++#@      ",
"                   >O+#>:+++++++++++#@       ",
"                   >O++>:#########@@@        ",
"                    OOoX:ooo-+--*            ",
"                    OOoX ooo#--*             ",
"                    OOo   Oo#-*              ",
"                   O==+  O+#**               ",
"                   OO+  O%#                  ",
"                  OO+  OO+                   ",
"                  OO+   O+                   ",
"                 O==     O#                  ",
"                 OO+                         ",
"                  OO+                        ",
"                                             ",
"                                             ",
"                                             "
};
