/* XPM */
static char *c0d6edb613b8400fb1d34d32eacb2c62O32ZL6kCXOi6PnhV[] = {
/* columns rows colors chars-per-pixel */
"45 45 168 2 ",
"   c #33323D",
".  c #3B353F",
"X  c #3E393F",
"o  c #43363F",
"O  c #3C3641",
"+  c #3E3A43",
"@  c #443341",
"#  c #493541",
"$  c #423C42",
"%  c #4C3A41",
"&  c #553246",
"*  c #5E3647",
"=  c #533B42",
"-  c #583B42",
";  c #5C364A",
":  c #5D3949",
">  c #603647",
",  c #653E44",
"<  c #683F44",
"1  c #623648",
"2  c #6B3849",
"3  c #6C334D",
"4  c #7A374E",
"5  c #75384C",
"6  c #71334E",
"7  c #773D50",
"8  c #444043",
"9  c #4E4246",
"0  c #47404C",
"q  c #4A424E",
"w  c #564745",
"e  c #5E4C47",
"r  c #53444B",
"t  c #5B494A",
"y  c #5C524B",
"u  c #4C4450",
"i  c #524A52",
"p  c #574D58",
"a  c #584E59",
"s  c #5F525E",
"d  c #6C4045",
"f  c #62434A",
"g  c #6F4648",
"h  c #664F4D",
"j  c #6B4C4B",
"k  c #744246",
"l  c #794347",
"z  c #70494A",
"x  c #784A4A",
"c  c #64514C",
"v  c #6B524E",
"b  c #72504D",
"n  c #765A4C",
"m  c #7B5E4D",
"M  c #604E51",
"N  c #645B56",
"B  c #6A5F53",
"V  c #765752",
"C  c #765852",
"Z  c #7E5C54",
"A  c #6C6352",
"S  c #726157",
"D  c #756A5A",
"F  c #7C6C56",
"G  c #665864",
"H  c #695A66",
"J  c #6C5C68",
"K  c #625561",
"L  c #797566",
"P  c #833C4D",
"I  c #883F4D",
"U  c #813750",
"Y  c #8D3E50",
"T  c #844649",
"R  c #8B474A",
"E  c #8E494A",
"W  c #93444D",
"Q  c #934A4B",
"!  c #984B4B",
"~  c #9B524F",
"^  c #8F4555",
"/  c #934A53",
"(  c #865552",
")  c #805E55",
"_  c #8A5F56",
"`  c #975550",
"'  c #9C5551",
"]  c #9E5B54",
"[  c #9D5E5C",
"{  c #85644F",
"}  c #866352",
"|  c #8A6651",
" . c #8B6851",
".. c #8C6459",
"X. c #956D53",
"o. c #986F53",
"O. c #90675A",
"+. c #9F615B",
"@. c #9E6F5F",
"#. c #83775C",
"$. c #877B5D",
"%. c #8D7A5B",
"&. c #927457",
"*. c #9A7154",
"=. c #A16157",
"-. c #A3665A",
";. c #A56C5D",
":. c #A87957",
">. c #A7705F",
",. c #AB7A58",
"<. c #B07D59",
"1. c #9D7E68",
"2. c #A37160",
"3. c #A97562",
"4. c #A57E67",
"5. c #AB7B65",
"6. c #8E805F",
"7. c #94805E",
"8. c #A5845E",
"9. c #AD855D",
"0. c #B4815B",
"q. c #BE875C",
"w. c #918360",
"e. c #988661",
"r. c #948967",
"t. c #9C826A",
"y. c #958D6B",
"u. c #9C8D64",
"i. c #97916F",
"p. c #999471",
"a. c #9B9977",
"s. c #9C9A78",
"d. c #A78961",
"f. c #AD826A",
"g. c #B88B60",
"h. c #B0876D",
"j. c #A09066",
"k. c #AC9B6A",
"l. c #B49969",
"z. c #A59270",
"x. c #B59575",
"c. c #B5A36E",
"v. c #B9A66F",
"b. c #AFA273",
"n. c #B0A576",
"m. c #B1A778",
"M. c #C38A5D",
"N. c #C89664",
"B. c #C5A26C",
"V. c #CEA76D",
"C. c #C5AA70",
"Z. c #C0AC72",
"A. c #CDAD71",
"S. c #C9B47A",
"D. c #CFBE7F",
"F. c #D2B173",
"G. c #D6B97B",
"H. c #D8BE7F",
"J. c #B8B586",
"K. c #B9B788",
"L. c #C8BC82",
"P. c #CDBE80",
"I. c #D9BF81",
"U. c #DCC586",
"Y. c #DDC789",
"T. c #DEC98B",
"R. c #E0CD8F",
"E. c #E1CF91",
/* pixels */
"J u                     q G +                 + H 0         + G q                     u J ",
"u D r.s.r.y.s.s.y.w.w.w.D i #.w.r.a.r.y.s.s.y.#.i D r.s.s.y.#.i D w.w.w.y.s.s.y.r.s.r.D u ",
"  w.D.K.b.n.K.K.m.k.k.C.7.8 v.Z.b.J.b.b.K.K.L.c.+ u.P.K.K.L.v.8 7.C.k.k.m.K.K.S.S.K.D.w.  ",
"  w.k.. . . . . . . . o. .8 v.#.. . . . . . $.c.$ u.j.. . #.v.8  .o.. . . . . | *.. k.w.  ",
"  w.k.. m o.o.o.o.o.o.0.| $ 9.9.o.o.o.o.o.o.0.8.+ &.g.o.o.9.9.$ | o.. m o.| + | o.. k.w.  ",
"  y.b.. o.,.| | | | | <.| . m | | | | | | | | n . c | | | | m . | o.. 8.N.,.$ | o.. b.y.  ",
"  s.K.. o.|   $ $ $   o.|                       . .             | o.. k.B.*.$ | o.. K.s.  ",
"  s.K.. o.| $ o.,. .. o.|                     o T =             | o.. k.e.$ . | o.. K.s.  ",
"  y.m.. o.9.e.B.V.d.. o.|     # 1 < d , * O # 2 Q l d < 1 #     | o.. k.c.6.6.9.o.. m.y.  ",
"  w.k.. m 8.k.k.k.6.. o.|     > Y Q ! W P @ * Y ' ! ! Q Y >     | o.. 6.k.k.k.8.m . k.w.  ",
"  w.k.. . . . . . .   o.|     < Q ! ! ! E # < ' 2.] ! ! Q <     | o.  . . . . . . . k.w.  ",
"  w.C.o.o.o.o.o.o.o.o.0.|     < ~ -.-.] Q # < ' 3.;.-.-.~ <     | 0.o.o.o.o.o.o.o.o.C.w.  ",
"  A 7. .| | | | | | | | c     < ' 3.3.-.Q # < ' 3.3.3.3.' <     c | | | | | | | |  .7.A   ",
"                            . d ' 3.3.-.Q # < ' 3.3.3.3.' d .                             ",
"                          . k E ' 3.3.-.Q # < ' 3.3.3.3.' E k .                           ",
"  # * < < < < < < < < < < d E ' -.3.3.+.P @ > / 2.3.3.3.-.' E d < < < < < < < < < < * #   ",
"$ ; 5 l T T T T T l l l T T T ( ......( 3 @ & 7 ..........( T T T T T T T T l l l T 5 ; $ ",
"H q   . . . . . . . . . . . . . . . . .       . . . . . . . . . . . . . . . . . . . . q H ",
"0 f x Z ) ) ) ) ) ) ) ) ) ) ) ) ) ) ) ) ) ) ) ) ) ) ) Z ) ) ) ) ) ) ) ) ) Z Z Z ) ) x f 0 ",
"  z =.3.3.3.3.3.3.3.3.3.3.3.3.3.3.3.3.3.3.3.3.3.3.3.3.3.3.3.3.3.3.3.3.3.3.3.3.3.3.3.=.z   ",
"  C 3.3.3.3.3.3.3.3.3.3.3.3.3.3.3.3.3.3.3.3.3.3.3.3.3.3.3.3.3.3.3.3.3.3.3.3.3.3.3.3.3.C   ",
"  C 3.3.3.3.3.3.3.3.3.3.3.3.3.3.3.3.3.3.3.3.3.3.3.3.3.3.3.3.3.3.3.3.3.3.3.3.3.3.3.3.3.C   ",
"  C 3.3.f.f.3.3.3.3.3.3.3.3.3.3.3.3.3.3.3.3.3.3.3.3.3.3.f.h.f.3.3.3.3.3.3.3.3.3.3.3.3.C   ",
"  v O.O.f.f.;.3.3.3.3.3.3.3.3.3.3.3.3.3.3.3.3.3.3.3.3.;.1.t.t.3.>.;.3.3.3.3.3.3.3.3.3.C   ",
"  . O O ..-.~ ;.3.3.3.3.3.3.3.3.3.3.3.3.3.3.3.3.3.3.-.Q = + r @.] ] 3.3.3.3.3.3.3.3.3.C   ",
"  t Z Z @.;.-.3.3.3.3.3.3.3.3.3.3.3.3.3.3.3.3.3.3.3.>.-._ Z } 2.;.;.3.3.3.3.3.3.3.3.3.C   ",
"  b ;.3.3.3.3.3.3.3.3.3.3.3.3.3.3.3.3.3.3.3.3.3.3.3.3.3.3.3.3.3.3.3.3.3.3.3.3.3.3.3.;.b   ",
". d ` 2.2.2.2.2.2.2.2.2.2.2.2.2.2.2.2.2.2.2.2.2.2.2.2.2.2.2.2.2.2.2.2.2.2.2.2.2.2.2.` d . ",
"s r % 9 9 9 9 9 9 9 9 9 9 9 9 9 9 9 9 9 9 9 9 9 9 9 9 9 9 9 9 9 9 9 9 9 9 9 9 9 9 9 % r s ",
"i M v v v v v v v v v v v v v v v v v f & . @ : v v v v v v v v v v v v v v v v v v v M i ",
"  C 3.3.3.3.3.3.3.3.3.3.3.3.3.3.3.5.3.[ U @ * ^ 2.3.3.3.3.3.3.3.3.3.3.3.5.5.5.5.3.3.3.C   ",
"  C 3.3.3.3.3.3.3.3.3.3.3.3.3.3.5.x.f.-.E # < ' 3.3.3.3.3.3.3.3.3.3.3.3.f.x.x.f.3.3.3.C   ",
"  C 3.3.3.3.3.3.3.3.3.3.3.3.3.3.3.;.2...- . < ' 3.3.3.3.3.3.3.3.3.;.] b c S 4.;.=.3.3.C   ",
"  C 3.3.3.3.3.3.3.3.3.3.3.3.3.3.;.] ;._ = . < ' 3.3.3.3.3.3.3.3.3.;.' j t h @.-.=.3.3.C   ",
"  V 3.3.3.3.3.3.3.3.3.3.3.3.3.3.3.3.3.-.Q # < ' >.3.3.3.3.3.3.3.3.3.3.3.3.3.3.3.3.3.3.V   ",
"  g ' ' ' ' ' ' ' ' ' ' =.3.] ' ' ' ' ~ Q # < ! ' ;.;.' ' ' ' ' ' ' ' ;.-.' ' ' ' ' ' g   ",
"  d ! ! ! ! ! ! ! ! ! ! ' =.! ! ! ! ! W I @ > W Q ] ] ! ! ! ! ! ! ! ! ] ' ! ! ! ! ! ! d   ",
"  , T T T T T R T T T T E Q R T T T T P 6 @ & 4 T Q Q T T T T T T T R Q Q R T T T T T ,   ",
"  . . . . . o o . . . . , E = . . . . . .   . . . l l . . . . o . . o T k . . . . . . .   ",
"                        o - .                     % %                 = %                 ",
"  9 e e e e e e e e e e 9 . w e e e e e e e e e e $ $ e e e e e e e e X $ e e e e e e 9   ",
"  { M.M.M.M.M.M.M.M.M.M. .$ :.M.M.M.M.M.M.M.M.M.M.c c M.M.M.M.M.M.M.q.w n M.M.M.M.M.M.|   ",
"  %.G.E.G.H.E.E.I.F.F.F.7.$ l.F.F.F.U.E.R.G.F.F.F.A B F.T.E.T.F.U.U.A.y F F.F.F.F.F.Y.y.  ",
"u D r.s.r.y.s.s.y.w.w.w.D i #.w.w.w.p.s.a.r.w.w.w.N N w.p.s.p.w.i.p.6.9 B z.w.w.w.w.p.L u ",
"J u                     q G +                     p a                   u K O         u J "
};
