/* XPM */
static char *_c81f2961d3e451fafd2ddcac7a3b59a5lcu0gblkozBN1tA[] = {
/* columns rows colors chars-per-pixel */
"45 45 140 2 ",
"   c #5B311A",
".  c #63351D",
"X  c #68371E",
"o  c #6C391E",
"O  c #703B1F",
"+  c #693720",
"@  c #663921",
"#  c #6E3A21",
"$  c #733D21",
"%  c #783F22",
"&  c #774023",
"*  c #7B4123",
"=  c #7C4629",
"-  c #844626",
";  c #884727",
":  c #874827",
">  c #894827",
",  c #834728",
"<  c #884728",
"1  c #874929",
"2  c #874928",
"3  c #84492A",
"4  c #854829",
"5  c #884828",
"6  c #894929",
"7  c #8A4828",
"8  c #8B4828",
"9  c #8B4928",
"0  c #8A4929",
"q  c #8A4B29",
"w  c #8A492A",
"e  c #884A2A",
"r  c #884B2B",
"t  c #8A4B2A",
"y  c #8C4929",
"u  c #8D4929",
"i  c #8C4A29",
"p  c #8D4A29",
"a  c #8E4A29",
"s  c #8D4B2A",
"d  c #8F4B2A",
"f  c #8A4C2A",
"g  c #8B4C2A",
"h  c #8A4C2B",
"j  c #8D4C2A",
"k  c #8C4D2B",
"l  c #8E4C2A",
"z  c #8F4C2A",
"x  c #8F4C2B",
"c  c #8F4D2B",
"v  c #8D4D2C",
"b  c #8E4C2C",
"n  c #8C4E2D",
"m  c #8E4E2C",
"M  c #8E4F2D",
"N  c #8F4F2D",
"B  c #8C4A29",
"V  c #914C2B",
"C  c #904D2B",
"Z  c #914D2B",
"A  c #924D2B",
"S  c #914E2B",
"D  c #914D2C",
"F  c #924D2C",
"G  c #934D2C",
"H  c #914F2C",
"J  c #904F2D",
"K  c #924E2C",
"L  c #934E2C",
"P  c #934F2C",
"I  c #934E2D",
"U  c #934F2E",
"Y  c #944E2C",
"T  c #944F2C",
"R  c #944F2D",
"E  c #954F2D",
"W  c #964F2D",
"Q  c #944F2D",
"!  c #8F502E",
"~  c #90502E",
"^  c #92512E",
"/  c #93512F",
"(  c #94512E",
")  c #95502F",
"_  c #94512F",
"`  c #96512E",
"'  c #97512E",
"]  c #94522F",
"[  c #95522F",
"{  c #96512E",
"}  c #98512E",
"|  c #98522F",
" . c #99522F",
".. c #9A522F",
"X. c #98522F",
"o. c #955130",
"O. c #975230",
"+. c #965330",
"@. c #9A5330",
"#. c #9B5430",
"$. c #985433",
"%. c #9C5530",
"&. c #9C5531",
"*. c #9D5531",
"=. c #9D5731",
"-. c #9D5733",
";. c #9F5632",
":. c #9B5531",
">. c #9E5832",
",. c #9A5834",
"<. c #A05733",
"1. c #A05733",
"2. c #A05833",
"3. c #A25933",
"4. c #A25834",
"5. c #A35A34",
"6. c #A15A36",
"7. c #A25A36",
"8. c #A45B34",
"9. c #A45C35",
"0. c #A55C35",
"q. c #A65C35",
"w. c #A75C35",
"e. c #A55C36",
"r. c #A55D37",
"t. c #A65C36",
"y. c #A65D36",
"u. c #A75D36",
"i. c #A65C36",
"p. c #A85D36",
"a. c #A85D37",
"s. c #A85E37",
"d. c #A85E37",
"f. c #AA5F38",
"g. c #A85F38",
"h. c #AA6038",
"j. c #AB6038",
"k. c #AB6039",
"l. c #AD633C",
"z. c #AB6038",
/* pixels */
"$.O.O.0 0 b O.O.6.l.l.l.l.l.l.l.l.l.l.l.l.l.6.O.O.y.l.l.l.l.l.l.l.l.l.l.l.l.l.=.O.O.@     ",
"O.E I ; ; y E E <.j.j.j.j.j.j.j.j.j.j.j.j.j.2.E E 8.j.j.j.j.j.j.j.j.j.j.j.j.j.=.E E .     ",
"O.E E > > y I I =.y.y.y.y.y.y.y.y.y.y.y.y.y.=.E E 2.s.s.y.y.y.y.y.y.s.s.s.s.s. .I I .     ",
"O.E E E E Z ; ; ; ; ; * * * * - - ; ; y E E E E E E E E 0 ; ; ; ; y E E E E E - * * * * * ",
"O.E E E E Z ; ; ; ; ; * * * * - - ; ; y E E E E E E E E 0 ; ; ; ; y E E E E E - * * * * * ",
"I Z Z E E I y y y y 0 - * * ; 1 : ; - < z z z z z z z z ; ; ; ; ; 0 Z Z I E E 0 - - $ $ $ ",
"0 ; > E E E E E E E E y ; > I E z * * * - - - - * - * * - - - ; ; ; ; ; z E E E E E $ o o ",
"0 ; > E E E E E E E E y ; > I E z * * * - - - - - - * - - - - ; ; ; ; ; z E E E E E $ o o ",
"$ $ $ * * * - - - - - * $ $ * - * # o # # # # # # $ & & & & $ $ $ $ $ $ * - - - - - . . . ",
"          . o o o o o .     X o X                 . o o o o o           . o o o o o       ",
".     . . . o o o $ $ . . . o $ o . .         . . o $ $ $ $ o .         . o o o o o .     ",
", - , b b 0 * * 1 ) ) ~ b b ~ ) ~ b b *     & b b ~ ) ) ) ) I , - * % $ * * * * * * * - - ",
"O.E  .j.j.>.- - ) j.j.j.j.j.j.j.j.j.j.!     3 j.j.j.j.j.j.j.y. .E Z ; ; ; ; ; - - - I E E ",
") E ) s.s.=.- ; ) y.y.y.y.y.y.y.y.y.y.b     , y.y.y.y.y.y.y.6. .E Z 0 > > > > ; - ; I I I ",
"y 0 y @.@.) I Z Z z z g 0 0 z z z 0 0 * + + * 0 0 z z z z z Z E E E I I I I I I I I 1 ; ; ",
"0 ; > E E E E E z ; ; - - - ; ; ; - - * # # & - - ; ; ; ; ; 0 E E E E E E E E E E E ; - - ",
"1 ; : I I I I I y 0 > ; - - ; ; ; - - * + + & ; ; > 0 0 0 0 y Z I I I I I I I I I I - * - ",
"3 - - - - ; ; ; y E E y ; ; ; ; ; ; ; %     * E E E E E E E I 0 ; ; ; ; ; - - - - - * * - ",
"3 * - - - - ; ; y E E y ; ; ; ; ; ; ; $     * E E E E E E E I > ; ; ; ; ; - - - - - * * - ",
"& $ $ * * * $ $ * : ; - * * * * * % $ #     # - - - - - - - - * * * * * * $ $ $ $ $ $ $ $ ",
"      o o .     . o o o o o o o X                             o o o o o .                 ",
"      o o .     . o o o o o o o X                             o o o o o .                 ",
"* * * b b g 1 1 , - - * * * * * * 1 1 1 1 3 1 3 1 1 1 3 * * * g b b b b 0 1 3 * * *       ",
"O.E  .j.j.j.j.j.6.E E y ; ; ; ; z f.j.j.j.j.j.j.j.j.j.j.@.E $.s.j.j.j.j.j.j.j.$.) ) .     ",
"O.E  .j.j.j.j.j.6.E E y ; ; ; ; z f.j.j.j.j.j.j.j.j.j.j.@.E $.y.j.j.j.j.j.j.j.$.E E .     ",
"O.E E E E ) =.=. .E E I Z Z Z Z Z I I I b b z g g g g 0 ; - 1 Z I I I I I b b 0 1 1 # . . ",
"O.E I ; ; y E E E E E E E E E E I ; ; ; - - * * * * * * * * * ; ; ; ; ; ; - - - - - $ # # ",
"@.) ) ; ; y E E E E E E I I I I z ; ; ; - - * * * * * * * * * ; ; ; ; ; ; - - - - - $ # # ",
"f.y.8.I I Z 0 0 0 0 0 ; - - - - * * * * * * * * * - ; ; ; ; ; ; ; ; - - - - * y I I - * * ",
"l.j.y.E E Z ; ; ; ; ; * * * * * * * * * * * * * * - ; ; ; ; ; ; ; ; - - - - - z E E ; - - ",
",.$.O.0 0 : - - - - - * $ $ $ $ $ $ $ $ $ $ $ $ $ * - - * * * - - * * * * * * 1 0 0 * * * ",
"@ . . . . . $ $ # o O o o o .                     o O # . . . o $ o . . X o o $ $ $ .   . ",
"          . o o o o o o o o                       . o o       o o .     . o o o o o       ",
"= * * $ $ $ * * - 1 1 1 1 , $ $ $ $ $ # . . # * * , 1 1 * * * $ $ * * * * * * - 1 1 * * * ",
"j.y.8.I I I I I =.s.s.s.s.y.) I I I I ; o o g y.y.s.s.s.y.y.2.0 ; I y.y.=.I I 6.s.s.y.y.y.",
"l.j.s.E E E E E <.j.j.j.j.s.@.E E E E 1 o o b j.j.j.j.j.j.j.8.y ; ) s.j.<.E E y.j.j.j.j.j.",
"$. .) y y Z E E @.<.=.) I I 0 ; 0 0 0 * . . * I I $.<.<.<.<.=.Z z ) =.<.) y y )  . . . . .",
"0 ; ; ; ; y E E E E I ; * * * * * - - $     o * * y E E E E E E E E E E y ; ; ; ; ; ; ; ; ",
"0 ; ; ; ; y E E E E I - * * * * * - * $     o * * y E E E E E E E E E E y ; ; ; ; ; ; ; ; ",
"0 ; ; * * * - - ; y 0 y y y ; - - * * $     $ y y I E E y y 0 0 1 1 1 1 ; - - - - - - - - ",
"0 ; ; * * * * * - ; ; I E E 0 ; ; * * #     * E E E E E 0 ; ; - - - * * - - - - - - * * * ",
"0 ; ; * * * * * - ; ; I E I 0 ; ; * * #     * E E E E E 0 ; ; - - * * * - - - - - - * * * ",
". . .     . o o X . . o $ $ $ $ o .           . . . . . o $ O o # # # # . . . . .       . ",
"          . o o .     . o o o o X                       X o o o o o o o .                 ",
"          . o o .     . o o o o X                       . o o o o o o o .                 "
};
