/* XPM */
static char *fcbeda0b2ba649e1ac8ea92daa9d3ac2wzzvICDlQ4HBhU8H[] = {
/* columns rows colors chars-per-pixel */
"45 45 98 2 ",
"   c #856570",
".  c #8A6D75",
"X  c #8C7077",
"o  c #8F767C",
"O  c #8D7379",
"+  c #85646F",
"@  c #83616E",
"#  c #805F6D",
"$  c #725A69",
"%  c #6E5967",
"&  c #886972",
"*  c #755C69",
"=  c #BE8C8B",
"-  c #C39490",
";  c #C59792",
":  c #C89E97",
">  c #C69A95",
",  c #B98386",
"<  c #AD707B",
"1  c #AA6F7A",
"2  c #C1908E",
"3  c #BC8889",
"4  c #A16B78",
"5  c #765B6A",
"6  c #C19290",
"7  c #B67F84",
"8  c #B98689",
"9  c #B78287",
"0  c #896A73",
"q  c #765D6A",
"w  c #8C6372",
"e  c #A76D7A",
"r  c #C9A199",
"t  c #CCA79E",
"y  c #C08F8D",
"u  c #886872",
"i  c #986874",
"p  c #9D7079",
"a  c #A78082",
"s  c #9C6F78",
"d  c #7E5E6D",
"f  c #926673",
"g  c #A2787E",
"h  c #7C5E6B",
"j  c #B09490",
"k  c #8A6370",
"l  c #A47C7F",
"z  c #9A6C76",
"x  c #AA8787",
"c  c #947379",
"v  c #BE8B8A",
"b  c #B77F84",
"n  c #B47C82",
"m  c #BF8E8E",
"M  c #CAA39C",
"N  c #8E6A73",
"B  c #B98487",
"V  c #CFADA4",
"C  c #D4B8AF",
"Z  c #D1B2A9",
"A  c #B08787",
"S  c #7E616D",
"D  c #C79D97",
"F  c #AD8D8C",
"G  c #B99A95",
"H  c #816670",
"J  c #90797E",
"K  c #937F84",
"L  c #917C81",
"P  c #C9A09A",
"I  c #CBA69F",
"U  c #CAA39D",
"Y  c #B1777F",
"T  c #C2928F",
"R  c #B78084",
"E  c #AF737D",
"W  c #BD8A8A",
"Q  c #AE727C",
"!  c #906473",
"~  c #B37A81",
"^  c #A06B77",
"/  c #9A6876",
"(  c #7D5E6C",
")  c #84626F",
"_  c #9C6A76",
"`  c #8B6371",
"'  c #B2777F",
"]  c #B67F83",
"[  c #B47B81",
"{  c #BE8B8B",
"}  c #BB8789",
"|  c #BE8E8E",
" . c #B29996",
".. c #B7A4A1",
"X. c #B59F9B",
"o. c #9D7A7E",
"O. c #C49995",
"+. c #B69490",
/* pixels */
"  . . X o o o . O . . . . . + @ @ # $ % % % % % % % $ # @ @ + . . . . . . . . . . . . & * ",
"= - - ; : : : - > - - - - - , < < 1 # % % % % % % % # 1 < < , - - - - - - - - - - - - 2 & ",
"- - - - - - - - - - - - - - 3 < < < 4 @ @ 5 5 # @ @ 4 < < < 3 - - - - - = 6 7 8 9 = - 0 q ",
"- - - - - - - - - - - - - - 3 < < < < < < w w e < < < < < < 3 - - - - - - r > t r - - y u ",
"- - - - - - - - - - - - - - 3 < < < < < < i i < < < < < < < 3 - - - - - - - - - - - - - . ",
"p a a a a a a a a a a a a a s i i i i i i d d f i i i i i i s a a a a a a a a a a a a g h ",
"j j a a a a a a a a k k a a l z i i i i i i i i i i i i i z l a p h g a x x j j j x a a a ",
"- - - - - 3 2 = - a c a - - - v b n n n n n n n n n n n b v - - - . - - - - - - - - - - - ",
"- - - - r m M = - a N a - - - - - - - - - - - - - - - - - - - - - . - - - - - - - - - - - ",
"- - - - - - - - - - a a - - - - - - - - - - - - - - - - - - - - - . - - - - - - - - - - - ",
"- - - - - - - - - - g g - - - - - - - - - - - - - - - - - - - - = & 2 - - - - - - - - - - ",
". . . . . . . . . . h h . . . . . . . . . . . . . . . . . . . .   * & . . . . . . . . . . ",
"B - > r r V C Z > t r - - - - - - - - - - p p = - r > t C C V > t - - - - - - - - - - =   ",
"- - - - - - - - - - - - - - - - - - - - - a a - - - - - - - - - - - - - - - - - - - - - . ",
"- - - - - - - - - - - - - - - = 3 2 2 a a N a - - - - - - - - - - - - - - - 3 2 = A a l S ",
"- - - - - - - - - - - - - - - = 3 D D F a c a - - - - - - - - - - - - - - - 3 D 6 G x a H ",
"B - - - - - - - - - - - - - - - - > > > - p p = - - - - - - - - - - - - - - - > ; : ; =   ",
". . . . . . . . . . h h . . O O o J K L o . . . . . . . . . . .   * & . X X o o K K J O . ",
"- - - - - - - - - - g g - - > > : P I U : - - - - - - - - - - - = & 2 - ; ; : : I I P > - ",
"< < < < < < Y y - - a a - - T R E < < < < < < < < < < < E R T - - . - - - y Y < < < < < < ",
"< < < < < < < b - - a a - - W Q < < < < < < < < < < < < < Q W - - . - - - b < < < < < < < ",
"% % ! e < < < ~ T - g g - - , < < < < ^ 5 % % % 5 / < < < < , - = & 2 - T ~ < < < e ! % % ",
"% % $ ( @ @ @ ) 0 . h h . . + @ @ @ @ h % % % % % 5 @ @ @ @ + .   * & . 0 ) @ @ @ ( $ % % ",
"% % % % d i i z l a a a a a s i i f 5 % % % % % % % 5 f i i s a a a a a l z i i d % % % % ",
"% % % $ _ < < n - - - - - - 3 < < < ` % % % % % % % ` < < < 3 - - - - - - n < < _ $ % % % ",
"w i i _ 1 < < n - - - - - - 3 < < < e i i d d f i i e < < < 3 - - - - - - n < < 1 _ i f 5 ",
"< < < < < < < n - - - - - - 3 < < < < < < i i < < < < < < < 3 - - - - - - n < < < < < < @ ",
"4 < < < < < < ' y - - - - - ] < < < < < < w w e < < < < < < ] - - - - - y ' < < < < < e ( ",
"@ @ @ @ @ @ @ u . . h h . . 0 ) @ @ @ @ @ @ @ @ @ @ @ @ @ ) 0 .   * & . . u @ @ @ @ @ @ @ ",
"< < < < < < E v - - p p - - y [ Q < < < < < < < < < < < Q [ y - B   = - - v E < < < < < < ",
"3 3 3 3 3 3 { - - - a a - - - y W 3 3 3 3 3 3 3 3 3 3 3 W y - - - . - - - - { 3 3 3 3 3 3 ",
"- - - - - - - - - - a a - - - - - - - - - - - - - - ; } | 6 = . u . - - - - - - - - - - - ",
"- - - - - - - - - - a a - - - - - - - - - - - - - - ; ; : > - - y . - - - - - - - - - - - ",
"a a a a a a a a a a k k a a a a a a a a a a a a a a a a a a a a p h g a a a a a a a a a a ",
"p a x F F  ...X.x j F a a a a a a a a a a k k g a F x j .... .x j a a a a a a a a a a g h ",
"- - - - - - - - - - - - - - - - - - - - - a a - - - - - - - - - - - - - - - - - - - - - . ",
"- - - - - - - - - - - - - - - - - - - - - l a - - - - - - - - - - - - - - - - - - - - T 0 ",
"- - - - - - - - - - - - - - - B n = = . . S a - - - - - - - - - - - - - - - n = B o.. 0 q ",
"= - - - - - - - - - - - - - - - - r r r - g g 2 - - - - - - - - - - - - - - - r > t > 2 & ",
"  . . . . . . . . . . . . . . . . . . . . h h & . . . . . . . . . . . . . . . . . . . & * ",
"- - - - - - - - - - p p - - r r t V C Z t - - - - - - - - - - - B   = - > > t t C C V r - ",
"- - = n n - B - o.. H a - - - v b n n n n n n n n n n n b v - - - . - - - - - - - - - - - ",
"- - 2 m m - O.r +.a N a - - y [ Q < < < < < < < < < < < Q [ y - - . - - - - - - - - - - - ",
"- - - - - - - - - - a a - - 3 < < < < 1 _ i i i _ 1 < < < < 3 - - . - - - - - - - - - - - ",
"- - - - - - - - - - p p - - ] < < < < ! $ % % % $ ! < < < < ] - B   = - - - - - - - - - - "
};
